<?xml version="1.0" encoding="utf-8"?>
<!-- Generator: Adobe Illustrator 22.1.0, SVG Export Plug-In . SVG Version: 6.00 Build 0)  -->
<svg version="1.1" id="Layer_1" xmlns="http://www.w3.org/2000/svg" xmlns:xlink="http://www.w3.org/1999/xlink" x="0px" y="0px"
	 viewBox="0 0 20.008 14" enable-background="new 0 0 20.008 14" xml:space="preserve">
<g>
	<circle fill="#141515" cx="1" cy="1" r="1"/>
	<circle fill="#141515" cx="1" cy="5" r="1"/>
	<path fill="#141515" d="M19.715,8.293l-4-4c-0.391-0.391-1.023-0.391-1.414,0s-0.391,1.023,0,1.414L16.594,8H1C0.448,8,0,8.448,0,9
		s0.448,1,1,1h15.594l-2.293,2.293c-0.391,0.391-0.391,1.023,0,1.414C14.496,13.902,14.752,14,15.008,14s0.512-0.098,0.707-0.293
		l4-4C20.105,9.316,20.105,8.684,19.715,8.293z"/>
</g>
</svg>
