<?xml version="1.0" encoding="utf-8"?>
<!-- Generator: Adobe Illustrator 23.0.1, SVG Export Plug-In . SVG Version: 6.00 Build 0)  -->
<!DOCTYPE svg PUBLIC "-//W3C//DTD SVG 1.1//EN" "http://www.w3.org/Graphics/SVG/1.1/DTD/svg11.dtd" [
	<!ENTITY ns_extend "http://ns.adobe.com/Extensibility/1.0/">
	<!ENTITY ns_ai "http://ns.adobe.com/AdobeIllustrator/10.0/">
	<!ENTITY ns_graphs "http://ns.adobe.com/Graphs/1.0/">
	<!ENTITY ns_vars "http://ns.adobe.com/Variables/1.0/">
	<!ENTITY ns_imrep "http://ns.adobe.com/ImageReplacement/1.0/">
	<!ENTITY ns_sfw "http://ns.adobe.com/SaveForWeb/1.0/">
	<!ENTITY ns_custom "http://ns.adobe.com/GenericCustomNamespace/1.0/">
	<!ENTITY ns_adobe_xpath "http://ns.adobe.com/XPath/1.0/">
]>
<svg version="1.1" id="Layer_1" xmlns:x="&ns_extend;" xmlns:i="&ns_ai;" xmlns:graph="&ns_graphs;"
	 xmlns="http://www.w3.org/2000/svg" xmlns:xlink="http://www.w3.org/1999/xlink" x="0px" y="0px" viewBox="0 0 6079.9 1213.8"
	 style="enable-background:new 0 0 6079.9 1213.8;" xml:space="preserve">
<style type="text/css">
	.st0{fill:#141515;}
	.st1{fill:#FFFFFF;}
</style>
<metadata>
	<sfw  xmlns="&ns_sfw;">
		<slices></slices>
		<sliceSourceBounds  bottomLeftOrigin="true" height="1213.8" width="6079.9" x="-0.4" y="-0.1"></sliceSourceBounds>
	</sfw>
</metadata>
<g>
	<path class="st0" d="M810,805.1c-26.9-5.8-47.2-20.6-60.4-45.3c-0.4,0.2-0.8,0.3-1.1,0.5c2.7,7.2,4,15.5,8.4,21.6
		c19.9,27.7,44.2,50.6,76.7,63.3c15.5,6.1,31.5,9.2,48.2,9.9c-16.9,8.1-34.6,8.5-52.6,4.6c-17.8-3.9-33.4-12.4-48-23.4
		c18.5,34.4,38.2,67.8,67.8,93.8c-13.7-1.2-50.2-23.1-76.9-46.3c2.1,9,26,43.6,45.1,64.2c18.1,19.5,39.4,34.7,64.4,45
		c-4.7-0.7-9.4-1.2-14.1-2.1c-4.9-1-9.7-2.3-14.4-3.9c-4.7-1.5-9.2-3.5-13.9-4.9c14.2,10.6,29,20.1,47,22.4c13.2,1.7,25-2.1,35-11.5
		c-7,12.5-13.9,25.2-27,32.3c-7.6,4.1-16,1.9-24,0.9c-2.5-0.3-5-1-8.4-1.7c25.9,26.5,40.5,55.8,30.5,94.4
		c-6.2-29.4-16.4-55.2-41.6-72c14.4,36.9,14.7,73.3-2,109.7c-0.2-44.3-21.6-78.1-52.2-107.4c12.7,27.3,21.4,56.6,41.2,80.4
		c-10.1-4.8-18.3-11.9-25.2-20.4c-16.2-20.3-28.3-43-39.5-66.3c-0.7-1.5-1.4-2.9-2.3-4.7c-0.9,7,6.6,33.9,15.2,57.3
		c7,18.9,16,36.6,28.2,52.5c12.1,15.8,24.5,31.5,37,47.7c-8.5,1.1-16.7-0.3-24.1-3.6c-6.5-2.9-11.6-2.1-18,0.6
		c-25.6,10.9-49.2,6.8-69.7-12.2c-18.2-16.9-31.1-37.7-42.1-59.7c-15.8-31.5-27.9-64.6-39.1-98c-0.5-1.4-0.9-2.7-2.1-4
		c0,15.7-0.5,31.4,0.1,47s2.4,31.2,3.7,48c-1.3-2.1-2.1-3.3-2.8-4.6c-10.2-18.1-15.3-37.8-17.9-58.2c-4.2-33.3-1.4-66.5,2.7-99.5
		c1.3-10.2,2.5-20.3,3.9-31c-8.1,10.4-15.7,20.5-23.7,30.3c-20,24.6-41.4,47.9-64.4,69.7c-25.4,24-55.7,34.1-90.4,32.4
		c-9.3-0.5-18.6-0.2-28,0c-33.3,0.6-61.3-11.7-85-34.7c-28.5-27.6-55-57.1-78.8-88.9c-0.4-0.5-0.9-1-1.7-1.9
		c-1.7,8,0.1,15.1,1.5,22.3c8.5,44,22.6,86.4,38,128.3c0.5,1.5,1,3,1.2,4.7c-24.4-22.5-38-51.1-46.2-81.4
		c-5.7,22.6-10.8,46.1-17.6,69.1c-11.2,37.8-27.3,73.5-50.9,105.5c-8.4,11.4-17.8,22.2-30.3,29.4c-20.1,11.7-40.6,10.8-61.1,0.9
		c-3.7-1.8-6.4-1.5-10.1-0.4c-7.7,2.3-15.7,3.9-23.7,5.6c-1.3,0.3-2.9-0.2-5-0.4c28.4-35.2,58.5-68.4,70.2-114.8
		c-11.6,21.2-24.5,39.5-44.3,54.1c12.4-35,29.5-66.4,45.6-98.2c-20.7,13-36,30.9-48.6,51.6c-12.8,20.9-19.8,43.4-18.8,68.4
		c-14-14.2-20.6-77.5-2.4-109.4c-13.5,6.2-33.8,28.2-41.9,70.3c-7-20.2-8-54.5,29.4-92.5c-6.2,0.8-12.5,1.7-18.9,2.4
		c-8.4,0.9-15.3-2.2-21.2-8c-7.7-7.7-13.7-16.5-18.6-26.1c16.8,14.6,35.1,14.2,54.1,5.7c25.5-11.4,45.8-29.4,64.1-50
		c4.4-5,8.4-10.3,12.2-16c-21.8,16.7-46.6,25.1-73.9,27.3c3.7-2.2,7.5-4.4,11.1-6.8c14.9-9.8,30.2-18.8,44.4-29.6
		c15.6-11.9,26.6-28.1,37.3-44.5c-16.3,14.9-33.8,28.2-53.4,38.5c-19.8,10.4-40.5,17.4-63,18.8c29.8-11,53.8-29.9,74.4-53.8
		c-20,8.9-40.3,12.2-61.6,4.6c27.1-4.3,49-18.1,68.5-36.7c19.6-18.7,32.4-41.4,40.4-67.1c-7,4.6-13.5,9.7-20.8,13.4
		c-7.1,3.6-14.9,5.8-22.4,8.5c-0.2-0.5-0.5-1.1-0.8-1.6c3.7-4.2,7.6-8.2,11.1-12.6c13.6-17,19.1-36.9,21-58.2
		c1.8-20.2,3.2-40.4,6.2-60.5c1.4-9.2,6.3-17.8,9.1-26.8c3.6-11.4,6.9-22.8,9.8-34.4c0.8-3.3,0-6.9,0-10.4c0.2-12.3,0.1-24.7,0.7-37
		c1-21-5-40.5-12.6-59.5c-6.4-16-14.7-31.2-21.4-47.1c-3.8-9-7.4-16.4-17.7-20.5c-11.7-4.7-16.6-15.5-16.6-28.4
		c0-16.2-0.1-32.4,9.3-46.7c6-9.2,11.6-18.8,18.6-27.1c7.6-9,10.1-18.7,10.6-30.1c1.6-42.9,5.1-85.7,16.5-127.3
		c11.3-41.2,35-74.3,67.7-101.3c36.1-29.7,78.2-47.3,122.5-60.7c24.2-7.4,49-12.4,74.2-15c1.7-0.2,3.7-1.3,4.8-2.6
		c7.5-8.8,17-13.2,28.4-13.3c7.5,0,15,0,22.4,0.9c8.6,1,15.4,5.8,21.1,12.3c1.2,1.4,3.4,2.6,5.2,2.8c60.2,7,117,24.7,168.9,56.2
		c40.8,24.8,71.7,58.7,89.4,103.6c8.6,21.8,12.9,44.7,15.6,67.8c2.7,24,4.3,48,6.5,72c0.2,2.4,1.4,4.7,2.3,7
		c4.5,10.9,9.1,21.7,13.8,32.5c1.2,2.7,2.6,5.4,4.2,7.8c8.2,12.2,16.1,24.7,17.7,39.7c1,9,1.2,18.3,0.1,27.2
		c-1.7,14.6-11.5,23-24.9,26.8c-6.7,1.9-10.5,5.3-14.1,11.2c-10.1,16.5-19.9,33-25.5,51.7c-8.9,29.9-9,60.1-2.3,90.3
		c3.3,14.9,7.9,29.5,12.6,44c5.7,17.4,7.7,35.3,8.7,53.5c1,17.3,1.8,34.5,6.9,51.3c4.7,15.6,12.9,29.1,24.3,40.7
		c1.6,1.6,3.7,2.8,5.6,4.1C811.1,803.9,810.6,804.5,810,805.1z M310.1,897.8c0.5-0.3,1-0.5,1.6-0.8c2.4,3.6,4.9,7.1,7.2,10.7
		c14.3,22.2,28.3,44.7,45.6,64.9c16.8,19.6,37,31.8,63.1,32.5c16.3,0.4,32.6,0.5,48.9,0.6c28.6,0.1,52.6-9.4,71.6-31.9
		c15.6-18.6,29-38.5,42-58.9c3.9-6.2,8-12.2,12-18.3c0.5,0.3,1.1,0.6,1.6,0.8c-7.7,16.7-15.3,33.3-23.2,50.4
		c27-29.1,52.6-58.9,73.4-92.4c8-12.9,15.7-26.1,18.5-41.2c6-33,11.6-66.2,17.3-99.3c0.7-4.1,1.1-8.2,1.6-12.4
		c0.5-4.1,1-8.1,1.5-12.2c-11.8,39.2-26.5,76.9-48.5,111.5c0-1.9,0.4-3.6,1-5.3c16.3-43.5,32.6-87.1,48.8-130.6
		c1.1-2.9,2.1-6,2.4-9.1c1.2-11.8,2.2-23.5,3.2-35.3c0.5-6.3,0.8-12.7,1.3-20.3c-1.4,1.7-1.8,2.1-2.2,2.7
		c-11,17-26.5,27.8-45.8,33.3c-29.1,8.2-58.3,7.6-87.3-0.1c-27.8-7.3-48.3-23.8-60.1-50.5c-0.3-0.7-0.8-1.2-1-1.4
		c-1.2,1.9-2.5,3.7-3.7,5.5c-1.7-1.4-3.6-2.8-5.1-4.4c-1-1-1.8-2.4-2.3-3.8c-4-10.7-8.1-21.4-11.8-32.2c-1.1-3.4-1.1-7.2-0.9-10.8
		c0.4-5.7,5.6-8.5,10.9-6.2c0.9,0.4,1.8,1,2.9,1.7c0-7.2,0-14,0-20.7c-5.8-0.5-8-2.6-7.8-8.8c0.1-4.3-1.8-6.9-5.3-7.9
		c-6.8-2-13.7-4-20.7-4.8c-9.6-1-19.3,0-28.3,4.2c-3,1.4-6.2,2.7-6.2,7.4c0.1,7-1.6,8.7-8,10.4c0,6.7,0,13.4,0,18.5
		c4,0.2,8.6-0.9,10.7,0.9c2.4,2,3.8,6.8,3.4,10.1c-1.9,15-7.1,29-15,42c-1.2,2-3.2,3.4-5.5,5.7c-1.4-3-2.3-4.9-3.4-7.3
		c-0.7,1.5-1.3,2.5-1.7,3.6c-10.7,23.2-28.5,38.7-52.5,46.8c-26.6,8.9-53.9,9.9-81.4,5.3c-17.4-2.9-33.4-9.3-46.3-21.7
		c-5.3-5.1-9.8-11.2-14.8-16.9c1.1,13.5,2.1,27.1,3.5,40.6c0.8,7.7,0.9,15.9,3.5,23c14.3,39,29.3,77.7,44,116.5
		c1.3,3.4,2.4,6.9,3.6,10.4c1.1,3.3,2,6.6,3,9.9c-22.3-34.2-36.9-71.7-48.5-110.6c-0.3,1.4-0.3,2.8-0.1,4c5,31.9,10,63.8,15,95.6
		c3.5,22.2,9.9,43.3,22,62.6c21,33.3,46.1,63.2,72.7,92c0.4,0.5,1,0.7,1.3,0.9C324.9,930.2,317.5,914,310.1,897.8z M461.1,6
		c0,0.2-0.1,0.5-0.1,0.8c-1.8,0-3.7,0-5.5,0c-12,0-21.7,4-27.9,15c-0.6,1.1-2.5,1.9-3.9,2.1c-11.2,1.7-22.5,2.5-33.5,4.8
		c-53.9,11.2-105.4,28-149.9,62.6c-39.1,30.4-66.9,67.5-77.7,116.5c-9.1,41.4-12.1,83.5-13.8,125.8c-0.1,2.7-1.5,5.7-3.2,7.8
		c-6,7.5-12.8,14.5-18.7,22.1c-7.9,10.3-14.8,21.3-18.3,34c-5,17.8,1.2,30.9,18.9,36.3c8.8,2.7,18.7,3.9,27.9,3.4
		c11-0.6,22.1-2.9,32.7-6c30.4-8.9,60.5-19,90.9-28c40.6-12,82-20.4,124.2-23c29.4-1.8,58.9-2.3,88.3-1.2
		c25.5,0.9,51.1,3.7,76.4,7.4c40,5.8,78.6,17.7,117.2,29.8c23.4,7.4,47.1,14,70.9,20c13.9,3.5,28.1,2.6,41.6-3.3
		c10.1-4.4,17-11.7,16.9-23c0-6.5-1.6-13.3-3.9-19.3c-6.7-17.1-17.8-31.6-30.6-44.6c-5.5-5.6-7.5-11.4-7.7-18.9
		c-0.8-33.3-3.6-66.4-9.3-99.3c-3.5-20.6-8.2-41-17.4-60.1c-23.7-49.3-63.8-81.9-111.2-105.6c-42.6-21.4-88.3-33.8-136-38.3
		c-1.8-0.2-4.1-1.8-5.1-3.5c-3.6-5.5-8.2-9.8-14.5-11.5C473,7.3,467,6.9,461.1,6z M207.5,459.2c1.4-0.2,2.4-0.2,3.3-0.4
		c26.5-5.1,53.2-8.4,80.2-9.5c32.6-1.4,65,0.2,96.2,10.8c12.6,4.3,24.7,10.7,36.4,17.2c4.1,2.3,7.5,3.6,12.1,3.6
		c13.3-0.2,26.7-0.2,40,0c5.8,0.1,10.6-0.9,15.8-4.5c16.4-11.2,34.9-17.6,54.3-21.7c43.3-9.2,86.8-6.3,130.1-0.4
		c10,1.4,19.9,3.2,30.3,5c-0.2-3.1-0.5-5.7-0.4-8.4c0.2-4.6-2.2-6.4-6.4-7.7c-15.7-4.9-31.2-10.2-46.9-15.1
		c-33.8-10.5-68.2-18.9-103.4-23c-24.8-2.9-49.7-4.4-74.6-5.3c-39-1.4-77.9,1.1-116.4,7.3c-39.6,6.4-78.1,17-116.2,29.7
		c-11.3,3.8-22.6,7.5-33.7,11.3C207.9,451.9,207.7,455.2,207.5,459.2z M211.6,697.4c0-1.8,0.1-2.4,0-3c-2.9-30.5-5.8-61-8.6-91.4
		c-1.2-13-2-26-3-39c-0.2-2-0.8-3.9-0.9-5.9c-1.1-12.2-2.2-24.5-3.3-37c-2.6-0.2-5.3-0.3-8.2-0.5c-0.3-2.2-0.6-4.2-0.9-6
		c-9.1-1.5-12.9,1.8-12.5,10.5c0.1,1.3,0.3,2.6,0.5,4c1.1,10.4,3.1,20.8,3.2,31.2c0.5,25.7,0.3,51.3,0.1,77
		C177.8,663.3,194.8,679.7,211.6,697.4z M702,696.2c0.4,0.2,0.8,0.4,1.2,0.7c6.6-7.8,14-15.1,19.7-23.5c4.8-7,9.8-15.1,10.8-23.1
		c2-18.1,2-36.5,1.9-54.8c-0.1-21.3-0.7-42.6,3-63.7c0.7-4,0.9-8.3,0.5-12.3c-0.4-4.1-4.3-4.8-7.5-5.3c-1.4-0.2-4,0.1-4.4,1
		c-2.1,4.3-4,8.7-5.2,13.3c-1.8,6.5-2.9,13.2-4.3,19.8c-0.2,0-0.3,0-0.5,0c0.4-8.7,0.8-17.3,1.1-26c-1.3,6.1-1.8,12.2-1.8,18.3
		c-0.1,15.4-4.3,30.2-5,45.7c-1.2,29.4-4.7,58.7-7.2,88C703.7,681.5,702.8,688.9,702,696.2z M207,1050.8c-1.2,2.1-1.7,2.9-2.1,3.8
		c-10.7,23.4-21.1,46.9-32,70.2c-11.5,24.2-25.8,46.6-46.5,64.1c-4.8,4.1-10.1,7.6-15.9,12c3.8-0.6,6.6-1,9.3-1.6
		c26.6-5.9,45.3-22.3,58.3-45.5C195.7,1122.3,203.3,1087.8,207,1050.8z M715.7,1037.6c-0.2,0.1-0.5,0.2-0.7,0.2c0,0.7-0.1,1.3,0,2
		c0.6,5.1,1.1,10.2,1.9,15.3c4.2,27.4,11.1,54,23.9,78.8c11.7,22.6,28.4,40.2,53.3,48.2c5,1.6,10.3,2.4,15.4,3.5
		c-23.5-15.8-40-37.1-53.2-61.2c-7.7-14.1-14.5-28.8-21.3-43.4C728.4,1066.7,722.1,1052.1,715.7,1037.6z M204.2,521.5
		c-0.4,0-0.8,0-1.2,0c0.3,19.8,1.6,39.5,7.8,58.5c9.2,28.5,28.6,45.9,57.5,52.5c23.7,5.4,47.6,4.9,71.3-0.1
		c19.5-4.2,36.6-12.9,49.7-28.5c10.3-12.3,16.2-26.6,19.4-42.2c3.7-18,4.2-36.2,1.8-54.4c-0.3,2.1-0.4,4.2-0.3,6.3
		c0.7,15.8,0.2,31.6-3.1,47.1c-7.2,33.5-25.7,57.5-59.2,67.7c-26.3,8-53.1,8.5-79.9,2.3c-24.8-5.8-42.6-20.4-52.6-44
		c-5.4-12.7-8.1-26-9.4-39.6C205.2,538.6,204.8,530.1,204.2,521.5z M709.8,520.1c-0.2,0-0.5,0.1-0.7,0.1c0,1.4,0.1,2.9,0,4.3
		c-1.7,14.8-2.2,30-5.3,44.5c-7.1,33.3-26.8,55.2-60.9,62.4c-24.7,5.2-49.3,4.5-73.7-1.9c-19.4-5.1-35.7-15.3-47.3-32.1
		c-11.3-16.2-16.4-34.5-17.7-53.8c-0.9-12.4-0.2-24.8-0.2-37.3c-1.1,1.7-1.7,3.5-1.8,5.2c-0.9,17.2-0.8,34.3,2.9,51.2
		c7.5,34,26.8,57.6,60.8,67.4c27.7,7.9,55.9,8.4,83.8,1.1c24.3-6.4,41.3-21.4,50.8-44.8c8.2-20.4,9.6-42,10.2-63.7
		C710.7,521.9,710.1,521,709.8,520.1z M720.5,482.8c1.8,0,3.9,0.5,5.4-0.1c1.8-0.8,3-2.6,4.5-4c-1.4-1.3-2.8-3.4-4.4-3.6
		c-3.7-0.5-7.7-0.6-11.4,0c-1.7,0.3-3,2.6-4.5,4c1.5,1.3,2.7,3,4.4,3.7C716.4,483.3,718.5,482.8,720.5,482.8z M193.2,482.8
		L193.2,482.8c2.1,0,4.5,0.5,6.4-0.2c1.5-0.5,3.4-2.4,3.4-3.8c0-1.3-1.9-3.7-3.2-3.9c-4.2-0.5-8.6-0.5-12.9,0
		c-1.4,0.2-3.6,2.7-3.4,3.7c0.3,1.6,2.2,3.3,3.9,3.9C189,483.3,191.2,482.8,193.2,482.8z"/>
	<path class="st1" d="M310.1,897.8c7.4,16.2,14.8,32.4,22.2,48.6c-0.2-0.2-0.9-0.5-1.3-0.9c-26.6-28.7-51.7-58.7-72.7-92
		c-12.2-19.3-18.5-40.4-22-62.6c-5.1-31.9-10.1-63.8-15-95.6c-0.2-1.3-0.1-2.6,0.1-4c11.5,38.9,26.1,76.4,48.5,110.6
		c-1-3.3-2-6.6-3-9.9c-1.1-3.5-2.3-7-3.6-10.4c-14.7-38.8-29.7-77.5-44-116.5c-2.6-7.2-2.8-15.3-3.5-23c-1.4-13.5-2.4-27-3.5-40.6
		c5,5.8,9.4,11.8,14.8,16.9c12.9,12.4,28.9,18.8,46.3,21.7c27.5,4.6,54.8,3.6,81.4-5.3c24-8.1,41.8-23.6,52.5-46.8
		c0.5-1,1-2,1.7-3.6c1.1,2.4,2,4.3,3.4,7.3c2.2-2.3,4.3-3.7,5.5-5.7c7.9-12.9,13.1-26.9,15-42c0.4-3.3-1-8.1-3.4-10.1
		c-2.1-1.8-6.7-0.7-10.7-0.9c0-5.1,0-11.8,0-18.5c6.4-1.6,8.1-3.3,8-10.4c0-4.7,3.2-6,6.2-7.4c9-4.2,18.6-5.3,28.3-4.2
		c7,0.8,13.9,2.8,20.7,4.8c3.5,1,5.4,3.6,5.3,7.9c-0.2,6.1,2,8.2,7.8,8.8c0,6.7,0,13.5,0,20.7c-1.1-0.7-2-1.2-2.9-1.7
		c-5.3-2.3-10.5,0.5-10.9,6.2c-0.2,3.6-0.2,7.5,0.9,10.8c3.6,10.8,7.7,21.5,11.8,32.2c0.5,1.4,1.3,2.8,2.3,3.8
		c1.6,1.6,3.4,2.9,5.1,4.4c1.2-1.8,2.4-3.7,3.7-5.5c0.1,0.2,0.6,0.7,1,1.4c11.8,26.7,32.3,43.1,60.1,50.5c29,7.7,58.2,8.3,87.3,0.1
		c19.3-5.4,34.8-16.3,45.8-33.3c0.3-0.5,0.8-1,2.2-2.7c-0.5,7.7-0.8,14-1.3,20.3c-1,11.8-2,23.6-3.2,35.3c-0.3,3.1-1.3,6.2-2.4,9.1
		c-16.2,43.5-32.6,87.1-48.8,130.6c-0.6,1.7-1,3.4-1,5.3c22-34.6,36.7-72.3,48.5-111.5c-0.5,4.1-1,8.1-1.5,12.2
		c-0.5,4.1-0.9,8.3-1.6,12.4c-5.7,33.1-11.3,66.2-17.3,99.3c-2.8,15.1-10.5,28.3-18.5,41.2c-20.8,33.6-46.5,63.3-73.4,92.4
		c7.8-17,15.5-33.7,23.2-50.4c-0.5-0.3-1.1-0.6-1.6-0.8c-4,6.1-8.1,12.2-12,18.3c-13,20.4-26.4,40.3-42,58.9
		c-19,22.6-43,32.1-71.6,31.9c-16.3-0.1-32.6-0.2-48.9-0.6c-26.2-0.7-46.3-12.9-63.1-32.5c-17.3-20.2-31.3-42.6-45.6-64.9
		c-2.3-3.6-4.8-7.1-7.2-10.7C311.2,897.3,310.6,897.6,310.1,897.8z M486.2,777.7c3.7,3.3,6.8,7.2,10.7,9.2
		c21,10.7,42.7,19.3,66.5,21c1.6,0.1,3.9,1.8,4.5,3.2c2,5.1,3.8,10.3,5.1,15.6c3.7,15.8,1.6,31.8,1.2,47.8
		c-0.2,9.2-0.8,18.3-1.3,28.4c6.5-8.5,13.4-26.7,16.3-40.4c1.2-5.6,2.8-11.2,4.9-16.6c5-13.3,6.6-26.7,3.3-40.6
		c-6-25.9-26.8-38.3-47-52.3c-0.3,2.4-0.4,3.9-0.6,5.8c-2.5-2.1-4.5-3.8-6.6-5.4c-16.1-11.9-33.7-18.8-54-15.5
		c-5.7,0.9-11,1.3-16.5-0.2c-2.2-0.6-4.6-0.6-6.9-1.2c-4-1.1-7.3-0.4-9.1,4.3c-1.4-4.6-4.3-4.9-8-4.5c-8.2,0.8-16,3.5-24.9,1.8
		c-19.4-3.8-36.6,3.3-52.3,14.5c-2.6,1.9-5.1,4-8,6.4c-0.2-2.2-0.3-3.7-0.5-6.8c-10.1,8-19.5,14.9-28.3,22.5
		c-22,19.1-25.2,48.7-14,74c1.3,3,2.4,6.2,3,9.4c2.4,14.6,7.4,28.3,14.4,41.3c0.7,1.2,1.5,2.3,2.7,4.1c-0.6-14.2-1.5-27.4-1.6-40.7
		c-0.2-15.3-1.4-30.7,4.1-45.5c2.1-5.8,3.8-11.6,12-9.6c0.5,0.1,1-0.1,1.5-0.2c19.8-2.9,38.2-9.8,56.2-18.3
		c4.4-2.1,7.9-5.9,11.7-9.1c1-0.9,1.4-2.4,2.1-3.7c0.3,0.4,0.6,0.8,1,1.2c0.6,6,1.3,12,2,18.5c9.3-4,14.7-10.8,19.6-17.7
		c2.4,6.3,4.6,12.2,6.8,18c0.6,0,1.1,0,1.7-0.1c2.2-5.9,4.5-11.8,6.8-18.1c4.9,7.6,10.5,14,19.6,17.7
		C484.8,789.7,485.5,783.8,486.2,777.7z M353.2,828.4c0,0.5-0.1,1-0.1,1.4c0.7,0.4,1.3,0.8,2,1.1c11.1,5,22.1,6.1,33.6,0.6
		c13.5-6.4,27.5-8,42.1-3.5c17.2,5.3,34.4,5.9,51.9,0.2c7.2-2.3,15.5-3,23-2.1c8.2,1,16.3,4.3,24.2,7.3c11.1,4.2,20.8,0.8,30.7-4.3
		c-17.8,3.4-31.5-6.1-45.9-13.8c-6.1-3.3-12.4-6.7-19-8.6c-4.8-1.4-10.9-2.1-15.4-0.4c-15.8,5.8-31,6.1-46.7,0.1
		c-3.9-1.5-9.1-1.7-13-0.4c-8.6,2.9-17,6.7-24.9,11.1C382.5,824.4,369.4,831.7,353.2,828.4z M527.7,847.3c-0.2-0.5-0.5-1-0.7-1.5
		c-4.5,1.5-9.1,2.7-13.5,4.4c-14.1,5.3-27.9,11.5-43.4,12.2c-19.4,0.9-38.5,0.6-56.8-7.3c-8.6-3.7-17.6-6.5-26.5-9.7
		c-0.3,0.5-0.6,1-0.9,1.6c7.4,5.2,14.5,11,22.2,15.6c7.9,4.6,16.5,8.1,24,11.7c-0.7,6.9-1.5,14.3-2.2,21.7c1,0.6,2.1,1.2,3.1,1.8
		c2.6-3.7,5.2-7.4,7.8-11.1c0.5,0.4,1,0.7,1.6,1.1c-0.8,5.9-1.6,11.9-2.5,17.8c0.3,0.3,0.6,0.6,1,0.9c3.2-2.9,6.5-5.7,9.8-8.6
		c2,2.6,3.9,5.2,6.2,8.2c2.4-3.1,4.5-5.7,6.3-8.1c3.5,3,6.7,5.8,10.8,9.3c-0.9-7.7-1.7-13.6-2.5-20.7c4.3,4,7.4,6.9,10.5,9.8
		c0.6-0.3,1.3-0.6,1.9-0.9c-0.8-7.4-1.7-14.8-2.5-22.6C499.5,870.3,512.6,857.1,527.7,847.3z M497.3,595.4c-0.5,0.2-1,0.3-1.4,0.5
		c4.3,17,8.6,33.9,13,50.9c3.3,12.9,11.3,23.1,18.6,33.9c8,12,6.7,20.2-4.2,29.6c-2.4,2-5,4.3-7.9,5.1c-7.3,1.9-14.8,3.2-22.3,4.5
		c-4.2,0.8-8.4,1.2-12.6,1.8c0.1,0.5,0.1,1,0.2,1.5c6.5,0,13-0.2,19.4,0c13.5,0.5,24.8-4.1,33.5-14.4c6.3-7.5,8-16,3.6-25
		c-2.2-4.4-4.6-8.9-7.7-12.7c-7.1-9-12.3-18.9-15.9-29.7c-1.9-5.7-3.8-11.3-5.8-16.9C504.3,614.6,500.8,605,497.3,595.4z
		 M418.2,595.3c-0.5-0.2-1-0.4-1.5-0.5c-3.5,9.6-7.3,19.2-10.5,28.9c-6,18-11.9,36-24.6,50.8c-2.6,3.1-4.2,7.1-5.8,10.9
		c-2.8,6.7-2.1,13.4,1.8,19.6c5.5,8.7,13.2,15.3,23.3,16.6c10.5,1.3,21.2,0.3,31.9,0.3c-4-0.9-8.2-1.7-12.4-1.9
		c-10.8-0.5-21.1-2.2-29.7-9.6c-10.4-8.9-11.9-17.3-4.8-28.9c1.8-3,4.2-5.6,5.9-8.7c4-7,9-13.8,11.4-21.4
		C408.6,632.9,413.1,614,418.2,595.3z M497.9,671.8c0.3-0.2,0.5-0.5,0.8-0.7c-3.4-4.8-6.7-9.7-10.3-14.4c-7.2-9.2-9.5-19.5-8.3-30.9
		c1.1-10.7,2.5-21.5,3-32.2c0.7-14.9,0.2-29.8-3.7-44.4c-0.3,1.5-0.4,2.9-0.3,4.3c1.3,23.9-1.3,47.5-4.4,71.1
		c-1.8,13.4,1.9,25,11.3,34.7C490,663.3,493.9,667.6,497.9,671.8z M604.3,827.2c9.4-25.8-14-86.4-40-102.1
		C589.2,755.2,602.4,788.9,604.3,827.2z M308.8,826.1c2.6-36.9,15.2-70,38.3-99C327.7,741,303.5,781.5,308.8,826.1z M518.3,705
		c-9-7.3-33.2-0.6-40.3,9.8c3.6,0,7.8,0.7,11.7-0.2c6.1-1.3,13.2-2.2,17.4-6C510.7,705.4,513.4,704.5,518.3,705z M396.5,704.3
		c2.7,0.4,7.1-0.1,7.7,1.2c3.8,8,11.4,7.7,18,9c4.8,1,9.8,0.5,14.1,0.6C427.1,704.1,404.3,697.5,396.5,704.3z M475.5,717.4
		c-12.3,6.9-24.7,8.1-37.8-0.1c4.7,9.4,12.5,13.5,22.3,12.5C468,729,473.5,724.6,475.5,717.4z M411.5,685.2
		c-0.4,0.4-0.8,0.8-1.2,1.2c9.5,9.3,19,18.6,28.5,27.9C437.8,701.4,424.4,687.9,411.5,685.2z M503.5,686.2
		c-13.9,1.3-28.3,15.7-28.3,27.9C484.6,704.8,494.1,695.5,503.5,686.2z"/>
	<path class="st1" d="M461.1,6c5.9,0.9,11.9,1.3,17.6,2.9c6.3,1.7,10.9,6,14.5,11.5c1,1.6,3.3,3.3,5.1,3.5
		c47.7,4.5,93.4,16.9,136,38.3c47.4,23.8,87.5,56.3,111.2,105.6c9.2,19.1,13.9,39.4,17.4,60.1c5.6,32.8,8.4,66,9.3,99.3
		c0.2,7.4,2.2,13.3,7.7,18.9c12.8,13,23.9,27.4,30.6,44.6c2.4,6,3.9,12.8,3.9,19.3c0.1,11.4-6.8,18.7-16.9,23
		c-13.5,5.9-27.7,6.7-41.6,3.3c-23.8-5.9-47.5-12.6-70.9-20c-38.5-12.1-77.1-24-117.2-29.8c-25.3-3.6-50.9-6.5-76.4-7.4
		c-29.4-1-58.9-0.5-88.3,1.2c-42.2,2.5-83.7,11-124.2,23c-30.4,9-60.5,19-90.9,28c-10.6,3.1-21.7,5.4-32.7,6
		c-9.2,0.5-19-0.7-27.9-3.4c-17.7-5.4-23.9-18.5-18.9-36.3c3.6-12.7,10.4-23.7,18.3-34c5.9-7.6,12.6-14.6,18.7-22.1
		c1.7-2.1,3.1-5.1,3.2-7.8c1.7-42.2,4.7-84.3,13.8-125.8c10.8-49,38.6-86.1,77.7-116.5c44.5-34.6,95.9-51.4,149.9-62.6
		c11-2.3,22.4-3.1,33.5-4.8c1.4-0.2,3.3-1,3.9-2.1c6.1-11,15.9-15,27.9-15c1.8,0,3.7,0,5.5,0C461,6.5,461.1,6.3,461.1,6z
		 M723.1,325.5c-0.7-9.5-2.1-18.6-2-27.7c0.2-19,1.2-37.9,1.8-56.9c0.9-29.1-1.6-57.8-12.1-85.4c-14.5-38.3-38.6-68.2-76.6-85.3
		C589.4,50,542.9,35.7,493.5,32.6c-30.4-1.9-61-2.1-91.2,2.5c-38.1,5.8-74.7,17.2-109.9,32.8c-20.9,9.3-39.8,21.7-54.2,39.8
		c-33.1,41.6-41.6,89.8-38.8,141.4c1.1,19.7,0.7,39.6,0.8,59.3c0,5.5-0.8,11.1-1.3,16.9c2.3-0.5,3.9-0.8,5.5-1.1
		c40.7-9.8,81.2-20.4,123.2-23.7c29.5-2.3,59.1-5,88.6-5.6c56.8-1,113.6-1.7,170.1,4.8c22.3,2.5,44.5,5.6,66.6,9.7
		C676.3,314,699.3,320,723.1,325.5z M457.8,295.1c-32.4,1.5-68.1,2.3-103.6,4.9c-25.5,1.9-51.1,4.4-76.1,9.5
		c-41.9,8.6-83.4,19.4-125.1,29.3c-1.5,0.4-3.3,1-4.3,2.1c-14.2,15.5-27.5,31.8-35,51.8c-1.9,5.2-3.3,11-3,16.5
		c0.5,11.1,7.4,18,19.7,21.5c15.4,4.4,30.8,2.9,45.8-1.6c27.2-8.1,54.2-16.9,81.1-25.7c62.9-20.6,127.3-31.5,193.4-32.3
		c32.3-0.4,64.5,1.3,96.6,5.5c45.3,5.9,89.2,17.6,132.5,31.8c24.9,8.2,50,15.9,75.2,22.7c13.6,3.6,27.7,3.4,41.1-2.4
		c7.2-3.1,12.7-8,14.3-16.1c1.7-8.6-1-16.5-4.4-24.1c-8-17.9-19.9-33-33.1-47.2c-1.2-1.3-3.3-2.1-5.2-2.6
		c-23.5-5.9-47.1-11.4-70.6-17.4c-44.9-11.6-90.3-19.4-136.6-22.1C527.5,297.3,494.2,296.5,457.8,295.1z M491.1,21.5
		c-3.8-6.5-9.4-10.9-16.5-11.5c-9.3-0.8-18.9-0.9-28.2,0.1c-6.8,0.7-12.3,5.2-15.9,11.4c10.3,0,20.2,0,30.1,0S480.5,21.5,491.1,21.5
		z"/>
	<path class="st1" d="M207.5,459.2c0.2-4,0.4-7.3,0.6-11.2c11.1-3.7,22.4-7.5,33.7-11.3c38-12.7,76.6-23.3,116.2-29.7
		c38.6-6.2,77.4-8.7,116.4-7.3c24.9,0.9,49.9,2.4,74.6,5.3c35.2,4.1,69.6,12.5,103.4,23c15.7,4.9,31.2,10.2,46.9,15.1
		c4.1,1.3,6.6,3.1,6.4,7.7c-0.1,2.6,0.2,5.3,0.4,8.4c-10.4-1.7-20.3-3.6-30.3-5c-43.4-5.9-86.8-8.7-130.1,0.4
		c-19.4,4.1-37.9,10.5-54.3,21.7c-5.2,3.6-10,4.5-15.8,4.5c-13.3-0.2-26.7-0.2-40,0c-4.5,0.1-8-1.3-12.1-3.6
		c-11.7-6.5-23.7-12.9-36.4-17.2c-31.1-10.6-63.5-12.2-96.2-10.8c-27,1.2-53.7,4.4-80.2,9.5C209.9,459,208.9,459,207.5,459.2z"/>
	<path class="st1" d="M211.6,697.4c-16.8-17.8-33.8-34.1-33.6-60.3c0.2-25.7,0.4-51.3-0.1-77c-0.2-10.4-2.1-20.8-3.2-31.2
		c-0.1-1.3-0.4-2.6-0.5-4c-0.4-8.7,3.4-12,12.5-10.5c0.3,1.8,0.6,3.8,0.9,6c2.9,0.2,5.6,0.4,8.2,0.5c1.1,12.5,2.1,24.7,3.3,37
		c0.2,2,0.8,3.9,0.9,5.9c1,13,1.8,26,3,39c2.8,30.5,5.8,61,8.6,91.4C211.6,695,211.6,695.6,211.6,697.4z"/>
	<path class="st1" d="M702,696.2c0.8-7.3,1.7-14.7,2.3-22c2.6-29.3,6.1-58.6,7.2-88c0.6-15.5,4.9-30.3,5-45.7
		c0-6.1,0.5-12.2,1.8-18.3c-0.4,8.7-0.8,17.3-1.1,26c0.2,0,0.3,0,0.5,0c1.4-6.6,2.5-13.3,4.3-19.8c1.2-4.6,3.1-9,5.2-13.3
		c0.4-0.9,3-1.2,4.4-1c3.3,0.6,7.1,1.2,7.5,5.3s0.2,8.3-0.5,12.3c-3.7,21.1-3.1,42.4-3,63.7c0.1,18.3,0.1,36.7-1.9,54.8
		c-0.9,8-6,16.1-10.8,23.1c-5.7,8.4-13,15.7-19.7,23.5C702.8,696.7,702.4,696.4,702,696.2z"/>
	<path class="st1" d="M204.2,521.5c0.6,8.6,1,17.1,1.8,25.7c1.3,13.6,4,27,9.4,39.6c10.1,23.6,27.8,38.2,52.6,44
		c26.8,6.2,53.6,5.7,79.9-2.3c33.5-10.2,52-34.2,59.2-67.7c3.3-15.6,3.8-31.3,3.1-47.1c-0.1-2.1,0-4.2,0.3-6.3
		c2.5,18.2,1.9,36.4-1.8,54.4c-3.1,15.5-9.1,29.9-19.4,42.2c-13.1,15.6-30.2,24.3-49.7,28.5c-23.7,5-47.6,5.5-71.3,0.1
		c-28.9-6.6-48.3-24-57.5-52.5c-6.2-19.1-7.5-38.7-7.8-58.5C203.4,521.5,203.8,521.5,204.2,521.5z"/>
	<path class="st1" d="M709.8,520.1c0.3,0.9,0.9,1.8,0.9,2.6c-0.5,21.7-1.9,43.2-10.2,63.7c-9.4,23.4-26.5,38.4-50.8,44.8
		c-28,7.3-56.1,6.8-83.8-1.1c-34.1-9.8-53.3-33.4-60.8-67.4c-3.7-16.9-3.8-34-2.9-51.2c0.1-1.8,0.7-3.5,1.8-5.2
		c0,12.4-0.7,24.9,0.2,37.3c1.4,19.3,6.5,37.7,17.7,53.8c11.7,16.8,28,26.9,47.3,32.1c24.3,6.5,49,7.1,73.7,1.9
		c34.1-7.2,53.8-29.1,60.9-62.4c3.1-14.5,3.6-29.7,5.3-44.5c0.2-1.4,0-2.9,0-4.3C709.3,520.2,709.6,520.1,709.8,520.1z"/>
	<path class="st1" d="M720.5,482.8c-2,0-4.2,0.5-5.9-0.1s-3-2.4-4.4-3.7c1.5-1.4,2.9-3.7,4.5-4c3.7-0.6,7.7-0.6,11.4,0
		c1.6,0.2,2.9,2.4,4.4,3.6c-1.5,1.4-2.8,3.2-4.5,4C724.4,483.3,722.4,482.8,720.5,482.8z"/>
	<path class="st1" d="M193.2,482.8c-2,0-4.2,0.5-5.9-0.1c-1.6-0.6-3.5-2.4-3.9-3.9c-0.2-1,2.1-3.5,3.4-3.7c4.2-0.5,8.6-0.5,12.9,0
		c1.3,0.1,3.2,2.5,3.2,3.9c0,1.3-1.9,3.2-3.4,3.8C197.7,483.3,195.3,482.8,193.2,482.8L193.2,482.8z"/>
	<path class="st0" d="M486.2,777.7c-0.7,6.1-1.3,12-2,18.4c-9-3.8-14.6-10.2-19.6-17.7c-2.4,6.3-4.6,12.2-6.8,18.1
		c-0.6,0-1.1,0-1.7,0.1c-2.2-5.9-4.4-11.8-6.8-18c-5,6.9-10.4,13.7-19.6,17.7c-0.7-6.5-1.3-12.5-2-18.5c-0.3-0.4-0.6-0.8-1-1.2
		c-0.7,1.2-1.1,2.8-2.1,3.7c-3.8,3.2-7.3,7-11.7,9.1c-17.9,8.5-36.4,15.4-56.2,18.3c-0.5,0.1-1,0.3-1.5,0.2c-8.2-2-9.8,3.7-12,9.6
		c-5.5,14.8-4.3,30.2-4.1,45.5c0.2,13.3,1,26.6,1.6,40.7c-1.2-1.8-2-2.9-2.7-4.1c-7-13-12-26.7-14.4-41.3c-0.5-3.2-1.6-6.4-3-9.4
		c-11.2-25.2-8-54.8,14-74c8.7-7.6,18.1-14.4,28.3-22.5c0.2,3.2,0.3,4.7,0.5,6.8c2.9-2.3,5.4-4.5,8-6.4
		c15.6-11.2,32.8-18.4,52.3-14.5c8.9,1.8,16.6-1,24.9-1.8c3.7-0.4,6.6-0.1,8,4.5c1.8-4.7,5.1-5.4,9.1-4.3c2.2,0.6,4.6,0.6,6.9,1.2
		c5.5,1.5,10.8,1.2,16.5,0.2c20.3-3.3,37.9,3.6,54,15.5c2.1,1.6,4.1,3.3,6.6,5.4c0.2-2,0.4-3.5,0.6-5.8c20.1,14,40.9,26.4,47,52.3
		c3.2,13.9,1.7,27.3-3.3,40.6c-2,5.4-3.7,11-4.9,16.6c-2.9,13.7-9.8,31.8-16.3,40.4c0.5-10.1,1-19.2,1.3-28.4
		c0.4-15.9,2.5-32-1.2-47.8c-1.2-5.3-3-10.5-5.1-15.6c-0.6-1.5-2.9-3.1-4.5-3.2c-23.8-1.7-45.6-10.3-66.5-21
		C492.9,784.9,489.9,781,486.2,777.7z"/>
	<path class="st0" d="M353.2,828.4c16.2,3.4,29.2-4,42.5-11.3c7.9-4.4,16.4-8.2,24.9-11.1c3.9-1.3,9.1-1.1,13,0.4
		c15.7,6,31,5.7,46.7-0.1c4.5-1.7,10.6-1,15.4,0.4c6.6,1.9,12.9,5.3,19,8.6c14.3,7.7,28.1,17.2,45.9,13.8
		c-9.9,5.1-19.6,8.6-30.7,4.3c-7.9-3-15.9-6.3-24.2-7.3c-7.5-0.9-15.8-0.2-23,2.1c-17.5,5.7-34.7,5.1-51.9-0.2
		c-14.6-4.5-28.7-2.8-42.1,3.5c-11.5,5.5-22.5,4.4-33.6-0.6c-0.7-0.3-1.3-0.7-2-1.1C353.2,829.3,353.2,828.8,353.2,828.4z"/>
	<path class="st0" d="M527.7,847.3c-15.1,9.8-28.1,23-46.4,25.9c0.9,7.8,1.7,15.2,2.5,22.6c-0.6,0.3-1.3,0.6-1.9,0.9
		c-3.1-2.9-6.3-5.9-10.5-9.8c0.9,7.1,1.6,13,2.5,20.7c-4.1-3.6-7.3-6.3-10.8-9.3c-1.8,2.4-3.9,5-6.3,8.1c-2.3-3-4.2-5.6-6.2-8.2
		c-3.2,2.8-6.5,5.7-9.8,8.6c-0.3-0.3-0.6-0.6-1-0.9c0.8-5.9,1.6-11.9,2.5-17.8c-0.5-0.4-1-0.7-1.6-1.1c-2.6,3.7-5.2,7.4-7.8,11.1
		c-1-0.6-2.1-1.2-3.1-1.8c0.8-7.4,1.5-14.8,2.2-21.7c-7.5-3.6-16.1-7-24-11.7c-7.8-4.6-14.9-10.3-22.2-15.6c0.3-0.5,0.6-1,0.9-1.6
		c8.8,3.2,17.9,6,26.5,9.7c18.3,7.9,37.4,8.2,56.8,7.3c15.5-0.7,29.3-6.9,43.4-12.2c4.4-1.7,9-3,13.5-4.4
		C527.2,846.3,527.4,846.8,527.7,847.3z"/>
	<path class="st0" d="M497.3,595.4c3.5,9.6,7,19.2,10.5,28.8c2,5.6,3.9,11.3,5.8,16.9c3.7,10.8,8.8,20.7,15.9,29.7
		c3.1,3.9,5.5,8.3,7.7,12.7c4.4,9,2.7,17.5-3.6,25c-8.7,10.4-20,15-33.5,14.4c-6.5-0.2-13,0-19.4,0c-0.1-0.5-0.1-1-0.2-1.5
		c4.2-0.6,8.4-1,12.6-1.8c7.5-1.3,15-2.6,22.3-4.5c2.9-0.8,5.5-3.1,7.9-5.1c10.9-9.4,12.3-17.6,4.2-29.6
		c-7.2-10.8-15.3-21-18.6-33.9c-4.4-17-8.7-33.9-13-50.9C496.3,595.7,496.8,595.5,497.3,595.4z"/>
	<path class="st0" d="M418.2,595.3c-5,18.7-9.5,37.6-15.3,56.1c-2.4,7.6-7.4,14.4-11.4,21.4c-1.7,3-4.1,5.7-5.9,8.7
		c-7.1,11.6-5.6,20,4.8,28.9c8.6,7.4,18.9,9.1,29.7,9.6c4.2,0.2,8.4,1,12.4,1.9c-10.6,0-21.4,1-31.9-0.3
		c-10.1-1.3-17.8-7.9-23.3-16.6c-3.9-6.2-4.6-12.8-1.8-19.6c1.6-3.8,3.2-7.9,5.8-10.9c12.7-14.8,18.6-32.7,24.6-50.8
		c3.2-9.7,7-19.3,10.5-28.9C417.1,594.9,417.6,595.1,418.2,595.3z"/>
	<path class="st0" d="M497.9,671.8c-4-4.2-7.9-8.4-12-12.6c-9.4-9.7-13.1-21.2-11.3-34.7c3.1-23.6,5.7-47.2,4.4-71.1
		c-0.1-1.4,0-2.9,0.3-4.3c3.9,14.6,4.4,29.5,3.7,44.4c-0.5,10.8-1.9,21.5-3,32.2c-1.2,11.4,1.1,21.8,8.3,30.9
		c3.6,4.6,6.9,9.6,10.3,14.4C498.4,671.3,498.2,671.5,497.9,671.8z"/>
	<path class="st0" d="M604.3,827.2c-1.9-38.3-15.1-72-40-102.1C590.4,740.8,613.8,801.3,604.3,827.2z"/>
	<path class="st0" d="M308.8,826.1c-5.4-44.6,18.9-85.1,38.3-99C324.1,756.2,311.4,789.2,308.8,826.1z"/>
	<path class="st0" d="M518.3,705c-4.9-0.5-7.6,0.4-11.1,3.6c-4.3,3.8-11.4,4.7-17.4,6c-3.9,0.8-8.1,0.2-11.7,0.2
		C485,704.4,509.2,697.7,518.3,705z"/>
	<path class="st0" d="M396.5,704.3c7.8-6.8,30.6-0.3,39.9,10.8c-4.3-0.2-9.4,0.3-14.1-0.6c-6.6-1.3-14.3-0.9-18-9
		C403.6,704.3,399.2,704.7,396.5,704.3z"/>
	<path class="st0" d="M475.5,717.4c-2,7.1-7.5,11.5-15.5,12.4c-9.8,1-17.6-3-22.3-12.5C450.9,725.6,463.2,724.3,475.5,717.4z"/>
	<path class="st0" d="M411.5,685.2c13,2.8,26.4,16.2,27.2,29.1c-9.5-9.3-19-18.6-28.5-27.9C410.6,686,411,685.6,411.5,685.2z"/>
	<path class="st0" d="M503.5,686.2c-9.4,9.3-18.9,18.6-28.3,27.9C475.2,701.9,489.7,687.5,503.5,686.2z"/>
	<path class="st0" d="M723.1,325.5c-23.8-5.5-46.8-11.5-70.1-16c-22-4.2-44.3-7.2-66.6-9.7c-56.5-6.5-113.4-5.8-170.1-4.8
		c-29.6,0.5-59.1,3.3-88.6,5.6c-41.9,3.2-82.5,13.9-123.2,23.7c-1.6,0.4-3.2,0.7-5.5,1.1c0.5-5.8,1.3-11.3,1.3-16.9
		c-0.1-19.8,0.3-39.6-0.8-59.3c-2.8-51.6,5.7-99.8,38.8-141.4c14.4-18.1,33.3-30.5,54.2-39.8c35.2-15.7,71.7-27.1,109.9-32.9
		c30.2-4.6,60.8-4.4,91.2-2.5C543,35.7,589.5,50,634.3,70.2c38,17.1,62,47,76.6,85.3c10.5,27.5,13,56.2,12.1,85.4
		c-0.6,19-1.6,37.9-1.8,56.9C721,306.9,722.4,316,723.1,325.5z M503.9,196c-0.4,0.8-0.8,1.6-1.2,2.4c6.2,4.2,12.4,8.6,18.8,12.6
		c6.1,3.9,8.9,9.8,7.5,17.4c-1.3,7-3.9,9.8-12.3,10.6c-9.8,0.9-19.6,0.9-29.4,0.8c-4.9-0.1-10-0.8-14.7-2.2
		c-7.5-2.3-11.8-13.7-6.9-18.6c3.7-3.7,3.7-6.7,1.5-10.8c-1-1.9-1.2-4.2-2.3-6c-1-1.6-2.7-3.9-4-3.9c-2,0-4.6,1.3-6,2.9
		c-2.1,2.5-3.4,5.7-5.1,8.5c-1.6,2.6-2,4.6,0.3,7.5c6,7.8,2.5,19.3-6.6,21.3c-12.3,2.7-24.8,2.7-37-0.7c-4.7-1.3-8-4.2-7.9-9.6
		c0.1-8.2,2-11.9,8.8-13c6.7-1.1,10.7-4.7,13.7-10.1c1.5-2.6,3.2-5.1,4.6-7.4c-1.5-2.1-2.9-4.1-3.9-5.5c-1.9,2.3-4.3,4.6-5.8,7.4
		c-2.8,5.2-6.7,8.2-12.6,9.2c-5.7,1.1-9.2,5.1-10.9,10.6c-4.2,13.9,1.6,24.1,16,26.2c8.3,1.3,16.9,1.1,25.4,1.2
		c10.1,0.1,19.4-2.1,24.8-12c5.9,7.7,8.7,10.3,17.9,10.9c13.2,0.9,26.6,0.9,39.8,0.6c5.6-0.1,11.5-1.3,15.2-6.4
		c8.1-11,7.3-26.9-6.2-35.1c-3.1-1.9-6.1-4.1-9.4-5.5C512.1,197.8,507.9,197.1,503.9,196z M433.4,150.3c-3.9-6.1-6.9-12.5-14.8-14.6
		c-4.7-1.2-7.8-4.3-7.6-9.7c0.2-5.5,3.8-8.1,8.4-9.1c12.4-2.8,24.8-2.2,37.1,0.3c6.4,1.3,8.3,10,3.7,14.8c-5.1,5.3-5.1,5.3-0.9,11.6
		c1.2,1.8,2.4,3.6,3.7,5.3c2.4,3.1,7.3,3.1,9.6-0.1c1.6-2.3,3-4.8,4.6-7.1c2.3-3.1,2.3-5.6-1.1-7.9c-3.8-2.6-4.5-6.3-3.4-10.6
		c1.1-4.1,4-6.3,8-6.4c10.8-0.5,21.5-0.9,32.3-0.8c5.1,0.1,7.5,3.6,7.6,8.7c0.1,6.5-3.1,10.7-10.9,12c-9,1.4-12.5,8.3-16.6,15.2
		c2.8,0.3,6.6,0.8,7.7-0.7c4.1-5.6,10-7.2,15.9-9.2c1.8-0.6,3.6-1.8,5.1-3c5.2-3.9,7.4-11.9,5.3-19c-1.8-6.5-6.7-10.6-13.7-11.1
		c-6.3-0.5-12.7-1.1-18.9-0.6c-9.4,0.7-19.6-0.6-25.8,6.9c-5.3-2.1-9.8-5.1-14.5-5.5c-10.9-0.9-21.9-1.4-32.8-0.5
		c-12,1-17.9,8.1-17.6,18.3c0.2,8.2,5.2,12.4,12.1,15.4c2.6,1.1,5.6,2.8,7,5.1C425.7,152.5,428.9,152.4,433.4,150.3z M496.9,170.1
		c-0.8-3.9-2.7-7.5-1.7-9.8c2-4.4,0.2-5.6-3.3-6c-2.9-0.3-6-0.2-8.8,0.4c-3.2,0.8-4.3,2.6-1.7,5.7c4.7,5.7,5.6,21.1,2,27.4
		c-1.9,3.3-1,6.2,2.7,6.8c4.2,0.6,8.6,0.6,12.8,0.2c4.4-0.3,5.8-3.5,3.9-7.4c-2.1-4.2-0.8-10.6,2.7-14.2c3.4,4.2,4.2,10.4,1.9,14.4
		c-2,3.5-0.8,6.9,3.2,7.4c3.6,0.4,7.3,0.2,10.9-0.2c3.8-0.4,4.7-3.3,3.6-7c-1.1-3.5-2.3-7.4-1.8-10.8c1-6.3-0.5-13.6,5.4-18.6
		c0.4-0.3,0-2.3-0.6-3c-2.2-2.4-10-2-12,0.6c-0.5,0.7-0.8,2.5-0.4,3c4.1,4.1,0.3,6.1-1.7,8.9c-4.3-4.3-4.3-5-2.9-9.8
		c0.3-1.1-0.8-3.6-1.7-3.9c-2.1-0.6-4.6-0.7-6.9-0.3c-4.1,0.7-4.8,2.7-2.3,6.1C503.1,163.9,502.4,166.8,496.9,170.1z M425.1,192.2
		c2.7,2.7,14.8,4.2,17.7,1.9c0.8-0.7,1.2-2.6,0.9-3.8c-1.3-5.1-3.5-10-4.2-15.2c-0.8-5.4-3.4-11.1,1.2-16.3c0.5-0.5-0.3-3.3-0.6-3.3
		c-4-0.5-8.2-1.4-12-0.5c-1.7,0.4-2.9,4.2-3.8,6.6c-0.9,2.3-1,4.9-1.5,7.3c-0.6,0.1-1.3,0.1-1.9,0.2c-1.1-2.6-2.4-5.2-3.3-7.8
		c-2.5-7.3-5.7-9.1-13.4-6.9c-4.5,1.3-5,2.5-2.3,6.5c0.5,0.8,1.2,1.8,1.2,2.6c0.2,8.4-0.5,16.6-4.5,24.1c-2,3.7-0.9,6.6,3.4,7.1
		c3.6,0.4,7.3,0.4,11,0.2c5.8-0.2,7.6-3.3,4.4-8.1c-2.3-3.5-1.9-6.6-0.2-10.8c1.6,3.1,2.9,5.5,4.7,8.9c1.8-3.6,2.9-6,4-8.4
		C428.6,182.2,427.4,187.3,425.1,192.2z M337,171.2c7.8-7.7,7.9-14,0.5-15.8c-6.2-1.5-13.1-1-19.6-0.7c-3.2,0.2-5.3,2.3-2,5.8
		c0.9,1,1.6,2.8,1.5,4c-1.2,7.7-2.2,15.6-4.4,23.1c-1.2,4.3-0.9,6.8,3.7,7.2c3.6,0.3,7.3,0.3,10.9,0.1c5.5-0.3,6.7-3.4,4.2-8.4
		c-1.7-3.5-2.4-7.5-3.5-11.3c0.8-0.4,1.5-0.8,2.3-1.1c1.1,1.4,2.7,2.7,3.2,4.4c0.9,2.8,1.1,5.9,1.7,8.8c1.9,8.9,8.1,11.5,16.6,6.7
		C346.8,186.5,349,174.8,337,171.2z M602.6,194.4c-4.1-8.2-2.8-19.3-14.5-23.4c1.5-1.4,2.4-2.1,3.2-2.9c4.8-4.9,3.7-11.4-2.8-12.8
		c-6.3-1.3-13.1-0.9-19.7-0.5c-2.8,0.2-5,2.1-2.1,5.5c1,1.1,2,3.1,1.7,4.4c-1.3,7.8-2.5,15.6-4.6,23.1c-1.1,4-0.7,6.6,3.7,7
		c3.4,0.4,6.9,0.3,10.4,0.2c6.3-0.2,7.5-3.1,4.7-8.7c-1.7-3.4-2.2-7.4-3.2-11.2c0.8-0.3,1.5-0.7,2.3-1c1.1,1.4,2.6,2.6,3.1,4.1
		c0.8,2.7,1,5.5,1.6,8.3C588.1,195.7,592.8,198.1,602.6,194.4z M620,173c0.9-0.3,1.8-0.6,2.7-0.8c2.1,5.1,4.3,10.2,6.4,15.3
		c3.2,7.5,5.4,9,13.3,8c1.8-0.2,3.5-1.4,5.2-2.2c-1.1-1.7-1.8-3.7-3.2-5.1c-4-3.8-8.6-6.9-12.2-11c-6.2-7.2-3.8-14.4,5-17.6
		c1.1-0.4,2.5-1.6,2.6-2.5c0-1-1.4-2.8-2.2-2.8c-3.6,0-7.2,0.3-10.7,1.2c-0.6,0.2,0,3.9-0.5,5.8c-0.5,1.7-1.6,3.4-2.8,4.8
		c-0.3,0.4-1.8,0-2.7-0.1c0.1-1.7-0.3-3.6,0.4-5.1c2.4-5.1,2.1-6.2-3.5-6.8c-2.7-0.3-5.7,0-8.3,0.9c-1.1,0.4-2.5,3.5-2,4.4
		c5.3,9.7,2.5,18.9-1.8,27.8c-2.1,4.4-1.3,7.1,3.6,7.6c3.8,0.4,7.6,0.3,11.4,0.1c4.7-0.3,5.8-3.2,3.9-7.7
		C622.7,182.7,621.5,177.8,620,173z M563.2,178.3c-1.7-5.6-2.8-11.6-5.3-16.9c-4.9-10-16.9-10.7-23.6-1.8
		c-5.2,7.1-6.7,15.1-4.3,23.6c2.6,9.2,9.8,13.9,18.8,12.4C556,194.5,563.3,188,563.2,178.3z M363.1,155.4c0.3,0.6,0.6,1.1,0.9,1.7
		c0.3,3.5,1.3,7.1,0.8,10.5c-1,7.2-2.7,14.3-8.6,19.6c-1.2,1.1-2.3,3.8-1.8,5.1s3,2,4.8,2.6c0.9,0.4,2,0.2,3,0.2
		c9.8,0,10.6-1.4,6.8-10.1c-0.9-2.2-0.4-5.5,0.7-7.8c0.4-0.9,4.5-0.9,6.3,0c4.1,2.1,2.2,5.7,0.9,8.6c-1.2,2.9-2.3,5.7,0.6,8.1
		c2.5,2.1,13.4,1.4,15.8-0.8c0.5-0.5,1.2-1.4,1.1-2c-0.3-2.1-0.8-4.2-1.5-6.2c-2.6-7.3-5.3-14.5-7.9-21.8c-1.5-4.1-2.9-8.8-8-9.1
		C372.4,153.7,367.8,154.8,363.1,155.4z M470.2,166.3c-2.6-0.2-4.7,0.1-6-0.6c-1.2-0.7-1.8-2.7-2.6-4.1c1.4-0.5,3-1.6,4.1-1.3
		c2.1,0.6,3.9,2.2,6,3.1c1.4,0.6,3.7,1.4,4.6,0.7c2.5-1.9,0.5-10-2.6-10.1c-7.4-0.2-14.9,0.2-22.3,0.9c-2.6,0.2-3.7,2.3-1.8,5.2
		c1.2,1.8,2,4.2,2,6.3c0.1,5.3-0.1,10.6-0.7,15.9c-0.3,2.8-1.4,5.7-2.7,8.2c-1.9,3.5-1.5,4.9,2.6,5c7,0.2,14,0.2,21-0.1
		c1.8-0.1,4.4-1,5-2.3c2.4-5.1,1.9-10.4,0.2-16c-4.8,2.8-9.5,4.2-13.4,0.4c-1.6-1.5-1.5-4.8-2.1-7.3c0.5-0.3,1-0.5,1.5-0.8
		c1.7,0.8,3.4,1.6,5.6,2.6C469.1,170.1,469.7,168.3,470.2,166.3z M304.9,165.3c-1.2,0.2-2.6,0.8-3.4,0.3c-1.6-1-2.9-2.5-4.4-3.9
		c1.7-0.8,3.5-2.4,5.2-2.3c1.7,0.1,3.2,1.9,4.9,2.9c1.3,0.8,2.7,1.4,4,2c0.2-1.5,0.9-3,0.5-4.4c-1.6-6.9-1.7-6.9-9.1-6.4
		c-2.1,0.1-4.3,0-6.5,0.1c-3.3,0.3-6.7,0.4-9.8,1.2c-1,0.3-2.5,3.5-2.1,3.9c4.8,5.4,2.2,11.8,2.7,17.7c0.4,4.9,1.1,10-3.6,13.8
		c-0.5,0.4,0.5,4.1,1,4.1c6.2,0.3,12.4,0.2,19.2,0.2c-0.6-1.9-0.6-3.3-1.3-3.9c-5.3-4.4-5.2-10.4-5.1-16.4c0-1.4,0.4-3.3,1.2-3.9
		c0.8-0.5,2.6,0.5,3.9,1c0.7,0.2,1.4,0.8,2.6,1.5C304.9,170.1,304.9,167.7,304.9,165.3z"/>
	<path class="st0" d="M457.8,295.1c36.5,1.4,69.8,2.1,103,4c46.2,2.6,91.7,10.5,136.6,22.1c23.5,6,47.1,11.6,70.6,17.4
		c1.8,0.5,3.9,1.3,5.2,2.6c13.2,14.2,25.1,29.3,33.1,47.2c3.4,7.6,6.1,15.6,4.4,24.1c-1.6,8.1-7,13-14.3,16.1
		c-13.4,5.8-27.6,6-41.1,2.4c-25.3-6.8-50.3-14.6-75.2-22.7c-43.3-14.2-87.2-25.9-132.5-31.8c-32.1-4.2-64.3-5.9-96.6-5.5
		c-66.1,0.8-130.6,11.7-193.4,32.3c-27,8.8-53.9,17.6-81.1,25.7c-14.9,4.5-30.4,5.9-45.8,1.6c-12.3-3.5-19.2-10.4-19.7-21.5
		c-0.3-5.5,1.1-11.3,3-16.5c7.5-20,20.8-36.2,35-51.8c1-1.1,2.8-1.8,4.3-2.1c41.7-9.9,83.1-20.8,125.1-29.3
		c25-5.1,50.6-7.6,76.1-9.5C389.7,297.4,425.3,296.6,457.8,295.1z"/>
	<path class="st0" d="M491.1,21.5c-10.5,0-20.5,0-30.5,0c-9.9,0-19.9,0-30.1,0c3.6-6.2,9.1-10.7,15.9-11.4c9.3-1,18.9-0.9,28.2-0.1
		C481.7,10.6,487.3,15,491.1,21.5z"/>
	<path class="st1" d="M503.9,196c4,1.1,8.2,1.9,12,3.4c3.3,1.4,6.3,3.6,9.4,5.5c13.4,8.3,14.2,24.1,6.2,35.1
		c-3.7,5-9.6,6.2-15.2,6.4c-13.3,0.2-26.6,0.3-39.8-0.6c-9.2-0.6-12-3.2-17.9-10.9c-5.5,9.9-14.7,12.1-24.8,12
		c-8.5-0.1-17,0-25.4-1.2c-14.4-2.2-20.2-12.3-16-26.2c1.7-5.5,5.2-9.5,10.9-10.6c5.9-1.1,9.8-4.1,12.6-9.2c1.5-2.8,3.9-5.1,5.8-7.4
		c1,1.4,2.4,3.4,3.9,5.5c-1.5,2.3-3.2,4.8-4.6,7.4c-3.1,5.5-7,9.1-13.7,10.1c-6.7,1.1-8.7,4.7-8.8,13c-0.1,5.4,3.2,8.2,7.9,9.6
		c12.3,3.4,24.8,3.4,37,0.7c9.2-2,12.7-13.5,6.6-21.3c-2.3-2.9-1.9-4.9-0.3-7.5c1.7-2.8,3-6.1,5.1-8.5c1.4-1.6,4-2.9,6-2.9
		c1.4,0,3.1,2.2,4,3.9c1.1,1.8,1.3,4.1,2.3,6c2.2,4.1,2.2,7.1-1.5,10.8c-4.9,4.9-0.6,16.3,6.9,18.6c4.7,1.4,9.8,2.2,14.7,2.2
		c9.8,0.1,19.6,0,29.4-0.8c8.4-0.7,11-3.6,12.3-10.6c1.4-7.6-1.4-13.6-7.5-17.4c-6.4-4-12.5-8.4-18.8-12.6
		C503.1,197.5,503.5,196.7,503.9,196z"/>
	<path class="st1" d="M433.4,150.3c-4.5,2.1-7.7,2.2-10.4-2.5c-1.3-2.3-4.4-4-7-5.1c-6.9-3-11.9-7.2-12.1-15.4
		c-0.3-10.2,5.6-17.3,17.6-18.3c10.9-0.9,21.9-0.4,32.8,0.5c4.7,0.4,9.3,3.4,14.5,5.5c6.2-7.5,16.4-6.2,25.8-6.9
		c6.3-0.5,12.6,0.2,18.9,0.6c7.1,0.5,11.9,4.7,13.7,11.1c2,7.2-0.2,15.1-5.3,19c-1.6,1.2-3.3,2.4-5.1,3c-6,2-11.8,3.7-15.9,9.2
		c-1.1,1.5-4.8,1-7.7,0.7c4.1-6.9,7.6-13.7,16.6-15.2c7.8-1.2,11-5.5,10.9-12c-0.1-5.2-2.5-8.6-7.6-8.7c-10.8-0.2-21.5,0.3-32.3,0.8
		c-3.9,0.2-6.9,2.3-8,6.4c-1.2,4.3-0.4,8,3.4,10.6c3.4,2.3,3.4,4.8,1.1,7.9c-1.7,2.2-3,4.8-4.6,7.1c-2.3,3.2-7.2,3.2-9.6,0.1
		c-1.3-1.7-2.5-3.5-3.7-5.3c-4.3-6.4-4.2-6.4,0.9-11.6c4.6-4.8,2.7-13.5-3.7-14.8c-12.3-2.5-24.8-3.1-37.1-0.3
		c-4.6,1.1-8.2,3.6-8.4,9.1c-0.2,5.4,3,8.5,7.6,9.7C426.5,137.8,429.5,144.2,433.4,150.3z M468.8,134.9c-6.2,3.1-3,5.3,0,7.5
		C468.8,140.1,468.8,137.9,468.8,134.9z"/>
	<path class="st1" d="M496.9,170.1c5.5-3.4,6.2-6.3,3.4-10.1c-2.5-3.4-1.8-5.4,2.3-6.1c2.2-0.4,4.7-0.4,6.9,0.3
		c0.9,0.3,2.1,2.8,1.7,3.9c-1.4,4.8-1.5,5.4,2.9,9.8c1.9-2.8,5.8-4.8,1.7-8.9c-0.5-0.4-0.2-2.3,0.4-3c2-2.6,9.8-3.1,12-0.6
		c0.6,0.7,1,2.7,0.6,3c-5.9,5-4.4,12.3-5.4,18.6c-0.5,3.4,0.7,7.3,1.8,10.8c1.2,3.7,0.2,6.5-3.6,7c-3.6,0.4-7.3,0.7-10.9,0.2
		c-4-0.5-5.3-3.9-3.2-7.4c2.3-4,1.5-10.2-1.9-14.4c-3.5,3.6-4.8,10-2.7,14.2c1.9,3.9,0.5,7.1-3.9,7.4c-4.3,0.3-8.6,0.4-12.8-0.2
		c-3.7-0.5-4.6-3.5-2.7-6.8c3.7-6.4,2.8-21.8-2-27.4c-2.6-3.2-1.6-5,1.7-5.7c2.8-0.6,5.9-0.7,8.8-0.4c3.5,0.4,5.3,1.6,3.3,6
		C494.2,162.6,496.1,166.2,496.9,170.1z"/>
	<path class="st1" d="M425.1,192.2c2.4-4.9,3.6-10,0.6-15.6c-1.1,2.4-2.3,4.8-4,8.4c-1.8-3.4-3-5.8-4.7-8.9
		c-1.8,4.2-2.2,7.3,0.2,10.8c3.2,4.8,1.4,7.9-4.4,8.1c-3.7,0.1-7.4,0.2-11-0.2c-4.3-0.5-5.4-3.4-3.4-7.1c4-7.5,4.7-15.8,4.5-24.1
		c0-0.9-0.7-1.8-1.2-2.6c-2.7-3.9-2.2-5.2,2.3-6.5c7.7-2.1,10.9-0.4,13.4,6.9c0.9,2.7,2.2,5.2,3.3,7.8c0.6-0.1,1.3-0.1,1.9-0.2
		c0.5-2.5,0.7-5,1.5-7.3c0.9-2.4,2.1-6.3,3.8-6.6c3.8-0.8,8,0.1,12,0.5c0.4,0.1,1.1,2.8,0.6,3.3c-4.6,5.2-2,10.9-1.2,16.3
		c0.7,5.1,2.9,10.1,4.2,15.2c0.3,1.2-0.1,3.1-0.9,3.8C439.9,196.5,427.8,195,425.1,192.2z"/>
	<path class="st1" d="M337,171.2c12,3.6,9.8,15.3,15,22.7c-8.4,4.8-14.6,2.1-16.6-6.7c-0.6-2.9-0.8-5.9-1.7-8.8
		c-0.5-1.6-2.1-2.9-3.2-4.4c-0.8,0.4-1.5,0.8-2.3,1.1c1.1,3.8,1.7,7.8,3.5,11.3c2.5,5,1.3,8.2-4.2,8.4c-3.6,0.2-7.3,0.2-10.9-0.1
		c-4.7-0.4-5-2.9-3.7-7.2c2.1-7.5,3.1-15.4,4.4-23.1c0.2-1.3-0.5-3.1-1.5-4c-3.3-3.5-1.1-5.6,2-5.8c6.5-0.4,13.3-0.8,19.6,0.7
		C344.9,157.2,344.8,163.5,337,171.2z M327.5,168c5.4-1.5,5.2-4.4,4-7.3c-0.3-0.7-2.2-0.6-3.4-0.9
		C327.9,162.6,327.7,165.3,327.5,168z"/>
	<path class="st1" d="M602.6,194.4c-9.8,3.7-14.5,1.3-16.3-7.8c-0.5-2.8-0.7-5.6-1.6-8.3c-0.5-1.6-2-2.8-3.1-4.1
		c-0.8,0.3-1.5,0.7-2.3,1c1,3.8,1.5,7.8,3.2,11.2c2.8,5.6,1.6,8.4-4.7,8.7c-3.5,0.1-7,0.1-10.4-0.2c-4.3-0.4-4.8-3-3.7-7
		c2.1-7.5,3.3-15.4,4.6-23.1c0.2-1.4-0.7-3.3-1.7-4.4c-3-3.4-0.8-5.3,2.1-5.5c6.5-0.4,13.3-0.8,19.7,0.5c6.5,1.4,7.6,7.9,2.8,12.8
		c-0.8,0.8-1.6,1.5-3.2,2.9C599.8,175.1,598.5,186.2,602.6,194.4z M584.4,163.4c-1.6-1.7-2.7-2.8-3.8-4c-0.8,1.1-2.4,2.3-2.3,3.3
		c0.2,1.8,1.4,3.6,2.1,5.4C581.6,166.8,582.7,165.4,584.4,163.4z"/>
	<path class="st1" d="M620,173c1.5,4.8,2.7,9.7,4.7,14.2c1.9,4.4,0.8,7.4-3.9,7.7c-3.8,0.2-7.6,0.3-11.4-0.1c-5-0.5-5.7-3.1-3.6-7.6
		c4.3-8.9,7-18.1,1.8-27.8c-0.5-0.9,0.9-4,2-4.4c2.6-0.9,5.5-1.2,8.3-0.9c5.6,0.6,5.9,1.8,3.5,6.8c-0.7,1.4-0.3,3.4-0.4,5.1
		c0.9,0.1,2.3,0.5,2.7,0.1c1.2-1.4,2.3-3.1,2.8-4.8c0.5-1.9-0.1-5.6,0.5-5.8c3.4-0.9,7.1-1.2,10.7-1.2c0.8,0,2.2,1.9,2.2,2.8
		c0,0.9-1.5,2.1-2.6,2.5c-8.8,3.2-11.2,10.4-5,17.6c3.5,4.1,8.2,7.2,12.2,11c1.4,1.3,2.2,3.4,3.2,5.1c-1.7,0.8-3.4,1.9-5.2,2.2
		c-7.8,1-10.1-0.5-13.3-8c-2.1-5.1-4.3-10.2-6.4-15.3C621.8,172.5,620.9,172.8,620,173z"/>
	<path class="st1" d="M563.2,178.3c0.1,9.6-7.2,16.2-14.4,17.4c-9,1.5-16.2-3.2-18.8-12.4c-2.4-8.5-1-16.6,4.3-23.6
		c6.7-9,18.7-8.2,23.6,1.8C560.4,166.7,561.4,172.7,563.2,178.3z M551.6,173.1c-1.5-4.2-2.7-8-4.3-11.5c-0.5-1-2.4-1.8-3.7-1.7
		c-0.9,0.1-2.4,1.7-2.4,2.6c0.2,4.2,0.5,8.4,1.6,12.4c0.4,1.3,3.5,2.6,5.2,2.4C549.2,177.2,550.3,174.8,551.6,173.1z"/>
	<path class="st1" d="M363.1,155.4c4.6-0.5,9.3-1.7,14-1.4c5.1,0.3,6.5,5,8,9.1c2.6,7.3,5.3,14.5,7.9,21.8c0.7,2,1.2,4.1,1.5,6.2
		c0.1,0.6-0.6,1.5-1.1,2c-2.5,2.2-13.3,2.9-15.8,0.8c-2.9-2.4-1.9-5.1-0.6-8.1c1.2-2.9,3.1-6.6-0.9-8.6c-1.8-0.9-5.9-0.8-6.3,0
		c-1.1,2.2-1.6,5.6-0.7,7.8c3.8,8.7,3,10.1-6.8,10.1c-1,0-2.1,0.2-3-0.2c-1.8-0.7-4.3-1.3-4.8-2.6s0.5-4,1.8-5.1
		c5.9-5.3,7.6-12.4,8.6-19.6c0.5-3.4-0.5-7-0.8-10.5C363.7,156.5,363.4,155.9,363.1,155.4z M375.7,169.6c0.4-0.4,0.8-0.9,1.1-1.3
		c-1.3-1.5-2.6-2.9-4-4.4c-1.1,1.7-2.2,3.4-3.7,5.7C372.3,169.6,374,169.6,375.7,169.6z"/>
	<path class="st1" d="M470.2,166.3c-0.6,2-1.1,3.7-1.7,5.7c-2.2-1-3.9-1.8-5.6-2.6c-0.5,0.3-1,0.5-1.5,0.8c0.7,2.5,0.6,5.8,2.1,7.3
		c3.9,3.7,8.6,2.4,13.4-0.4c1.6,5.6,2.1,10.9-0.2,16c-0.6,1.3-3.3,2.2-5,2.3c-7,0.3-14,0.2-21,0.1c-4-0.1-4.4-1.4-2.6-5
		c1.3-2.5,2.4-5.4,2.7-8.2c0.6-5.3,0.8-10.6,0.7-15.9c0-2.1-0.8-4.6-2-6.3c-1.9-2.9-0.9-4.9,1.8-5.2c7.4-0.7,14.9-1.1,22.3-0.9
		c3.1,0.1,5.1,8.2,2.6,10.1c-0.9,0.7-3.1-0.1-4.6-0.7c-2.1-0.9-3.9-2.5-6-3.1c-1.2-0.3-2.7,0.8-4.1,1.3c0.9,1.4,1.4,3.4,2.6,4.1
		C465.6,166.5,467.6,166.1,470.2,166.3z"/>
	<path class="st1" d="M304.9,165.3c0,2.4,0,4.8,0,7.8c-1.3-0.7-1.9-1.2-2.6-1.5c-1.3-0.5-3.1-1.4-3.9-1c-0.9,0.6-1.2,2.5-1.2,3.9
		c-0.1,6-0.2,12,5.1,16.4c0.7,0.6,0.7,2,1.3,3.9c-6.8,0-13,0.1-19.2-0.2c-0.4,0-1.5-3.6-1-4.1c4.6-3.8,3.9-9,3.6-13.8
		c-0.4-5.9,2.1-12.3-2.7-17.7c-0.4-0.4,1.1-3.6,2.1-3.9c3.1-0.9,6.5-1,9.8-1.2c2.1-0.2,4.3,0,6.5-0.1c7.4-0.5,7.5-0.6,9.1,6.4
		c0.3,1.3-0.3,2.9-0.5,4.4c-1.3-0.7-2.7-1.3-4-2c-1.7-1-3.2-2.8-4.9-2.9s-3.5,1.5-5.2,2.3c1.4,1.3,2.7,2.9,4.4,3.9
		C302.2,166.1,303.6,165.5,304.9,165.3z"/>
	<g>
		<path class="st0" d="M663.7,155.5c-7.1-4.4-16.3-6.5-24.4-8.2c-11.2-2.5-24-4.7-36.2-4c-0.1,0-0.1-0.1-0.2-0.1
			c-10.5-4.9-21.1-5.9-32-1.6c-7.4,2.9-14.4,6.6-20.8,11.3c-0.3,0.2-0.5,0.4-0.8,0.6c-0.5-0.4-1-0.8-1.6-1.1c1.8-2.7,3.3-5.6,4.3-9
			c4.1-13.7-2.3-26.4-12.9-34.8c-8.5-6.7-17.5-13.4-28.4-15.3c-7.3-1.3-13.3-1.2-20.6,0.5c-1.5,0.3-11.8,4.1-12.5,3.1
			c0,0,4.7-0.3,0.8-0.2c-1.2,0.1-2.4,0.2-3.7,0.2c-1.8,0.1-3.7,0.1-5.5,0.1c-4.9,0-9.9-0.2-14.8-0.2c-10.6,0-21.2,1.2-31.7,2.8
			c-18.2,2.9-39.5,9.6-48,26c-14.1-6-28.1-0.3-33.5,14.5c-0.4,1.1-0.8,2.2-1.1,3.3c-6-1.7-11.7-1-17,1.2c-6-1.7-13-1.3-17.9,2.2
			c-6-3.4-13.6-3.1-19.8-0.5c-7.2,3.1-10.7,8.2-13.6,15.2c-3.5,8.6-5,17.7-5.6,27c-0.9,12.3,11.4,24,23.5,23.5
			c1.1-0.1,2.2-0.2,3.2-0.4c2.8,5,7.4,8.9,13.6,10.4c12.1,2.8,25.8-3.6,28.9-16.4c0.3-1.1,0.5-2.1,0.7-3.2c0.3-1.1,0.6-2.2,0.9-3.3
			c0.5,0.2,1.1,0.5,1.6,0.7c0.2,0.1,0.5,0.3,0.8,0.4c5,6.7,12.3,10.6,21.7,9.3c3.5-0.5,7-1.8,10-3.8c1,3.2,2.2,6.4,3.5,9.5
			c1.8,4.4,3.8,8.8,5.1,13.4c0.3,1.1,0.6,2.3,0.9,3.4c0,0,0,0,0,0.1c0,0.6,0,1.3,0,1.9c-1,5.4-0.4,10.5,1.5,14.9
			c-5.8,2.4-11.5,4.7-17.3,7c-6,2.3-3.7,10.7,2.7,9.6c8.9-1.5,17.8-3.1,26.7-4.6c0.9,0.4,1.9,0.9,2.9,1.2c11.2,4,24,0.8,33.6-5.7
			c1.1-0.8,2.2-1.6,3.2-2.4c1.4-0.2,2.7-0.5,4.1-0.7c2.3,4.9,5.9,9.2,10.9,12.2c10.5,6.3,22.5,4.3,33.9,2.1
			c11.7-2.2,23.1-6,34.5-9.8c10.9,1.4,21.8,2.6,32.7,3.9c6.4,0.7,6.3-9.2,0-10c-3.3-0.4-6.6-0.9-10-1.4c2.5-0.8,5-1.6,7.5-2.4
			c2.2,0.7,4.4,1.4,6.5,2.2c4.3,1.5,6.8-2.8,5.9-6.3c21.2-7,42.5-14.1,63.6-21.5c8-2.8,16-5.6,24-8.5c10.4-3.8,21-8.1,26.5-18.4
			C681.6,181.7,677.7,164,663.7,155.5z M541,148.1c-0.1-0.1-0.3-0.2-0.4-0.2c-0.1-0.1-0.2-0.1-0.2-0.1c-0.3-0.3-0.7-0.6-0.8-0.7
			c0,0,0,0-0.1-0.1C539.6,146.9,540.5,147.3,541,148.1z M337.6,198c0-0.1,0.1-0.2,0.1-0.3c-0.1,0.1-0.1,0.1-0.2,0.2l0,0
			c0-0.1,0.1-0.1,0.2-0.2l0,0l0,0c0.3-0.4,0.6-1,0.9-1.7c-0.1,0.4-0.4,1.2-0.9,1.7c0.6,1,1.1,1.9,1.8,2.8
			C338.8,199.8,338.1,198.9,337.6,198z"/>
		<path class="st0" d="M337.7,197.6L337.7,197.6C337.7,197.7,337.7,197.7,337.7,197.6C337.7,197.7,337.7,197.7,337.7,197.6z"/>
	</g>
</g>
<g>
	<g>
		<path class="st1" d="M278.5,224.8V189h30.2v24.8h-13.8v11H278.5z M292.3,222v-11h13.8v-8.2h-13.8V200h13.8v-8.2h-24.8V222H292.3z"
			/>
		<path class="st1" d="M295.3,225.2h-17.1v-36.5h30.9v25.5h-13.8V225.2z M278.9,224.4h15.6v-11h13.8v-24h-29.4V224.4z M292.7,222.4
			h-11.8v-31h25.6v9h-13.8v2h13.8v9h-13.8V222.4z M281.7,221.6h10.2v-11h13.8v-7.5h-13.8v-3.5h13.8v-7.5h-24.1V221.6z"/>
	</g>
	<g>
		<path class="st1" d="M311.5,224.8V189h30.2v35.8H311.5z M339,222v-11h-5.5v-2.8h5.5v-16.5h-24.8v30.2h11v-8.2h2.8v8.2h11V222z
			 M325.3,205.5v-8.2h2.8v8.2H325.3z"/>
		<path class="st1" d="M342.1,225.2h-30.9v-36.5h30.9V225.2z M311.9,224.4h29.4v-35h-29.4V224.4z M339,222.3h-11.4v-8.2h-2.1v8.2
			h-11.8v-31h25.6v17.2h-5.5v2.1h5.5V222H339V222.3z M328.4,221.5h10.2v-10.1h-5.5v-3.6h5.5v-15.8h-24.1v29.5h10.2v-8.2h3.6V221.5z
			 M328.5,205.9h-3.6v-9h3.6V205.9z M325.7,205.1h2.1v-7.5h-2.1V205.1z"/>
	</g>
	<g>
		<path class="st1" d="M344.5,224.8V189h30.2v35.8H344.5z M372,222v-30.2h-24.8V222h11v-11h2.8v11H372z M358.3,205.5v-8.2h2.8v8.2
			H358.3z"/>
		<path class="st1" d="M375.1,225.2h-30.9v-36.5h30.9V225.2z M344.9,224.4h29.4v-35h-29.4V224.4z M372.4,222.4h-11.8v-11h-2.1v11
			h-11.8v-31h25.6V222.4z M361.4,221.6h10.2v-29.5h-24.1v29.5h10.2v-11h3.6V221.6z M361.5,205.9h-3.6v-9h3.6V205.9z M358.7,205.1
			h2.1v-7.5h-2.1V205.1z"/>
	</g>
	<g>
		<path class="st1" d="M377.5,224.8V189h35.8v35.8H377.5z M410.5,222v-30.2h-13.8v8.2h-2.8v-8.2h-13.8V222h8.2v-11h2.8v11h8.2v-11
			h2.8v11H410.5z"/>
		<path class="st1" d="M413.7,225.2h-36.5v-36.5h36.5V225.2z M377.9,224.4h35v-35h-35V224.4z M410.9,222.4h-9.1v-11h-2.1v11h-8.9
			v-11h-2.1v11h-8.9v-31h14.5v8.2h2v-8.2h14.6V222.4z M402.5,221.6h7.6v-29.5h-13.1v8.2h-3.5v-8.2h-13v29.5h7.4v-11h3.6v11h7.4v-11
			h3.6V221.6z"/>
	</g>
	<g>
		<path class="st1" d="M416,224.8V189h30.2v35.8H416z M443.5,222v-8.2h-11V211h11v-8.2h-11V200h11v-8.2h-24.8V222H443.5z"/>
		<path class="st1" d="M446.6,225.2h-30.9v-36.5h30.9V225.2z M416.4,224.4h29.4v-35h-29.4V224.4z M443.9,222.4h-25.6v-31h25.6v9h-11
			v2h11v9h-11v2h11V222.4z M419.1,221.6h24.1v-7.5h-11v-3.5h11v-7.5h-11v-3.5h11v-7.5h-24.1V221.6z"/>
	</g>
	<g>
		<path class="st1" d="M449,224.8V189h35.8v35.8H449z M482,222v-30.2h-8.2v11H471v-11h-8.2v11H460v-11h-8.2V222h13.8v-8.2h2.8v8.2
			H482z"/>
		<path class="st1" d="M485.2,225.2h-36.6v-36.5h36.6V225.2z M449.4,224.4h35.1v-35h-35.1V224.4z M482.4,222.4H468v-8.2h-2v8.2
			h-14.6v-31h9v11h2.1v-11h8.9v11h2.1v-11h8.9V222.4z M468.8,221.6h12.8v-29.5h-7.4v11h-3.6v-11h-7.4v11h-3.6v-11h-7.5v29.5h13.1
			v-8.2h3.5V221.6z"/>
	</g>
	<g>
		<path class="st1" d="M487.5,224.8V189h30.2v35.8H487.5z M515,222v-30.2h-24.8V222H515z M501.3,213.8V200h2.8v13.8H501.3z"/>
		<path class="st1" d="M518.1,225.2h-31v-36.5h31V225.2z M487.9,224.4h29.5v-35h-29.5V224.4z M515.4,222.4h-25.5v-31h25.5V222.4z
			 M490.6,221.6h24v-29.5h-24V221.6z M504.5,214.2h-3.5v-14.5h3.5V214.2z M501.7,213.4h2v-13h-2V213.4z"/>
	</g>
	<g>
		<path class="st1" d="M520.5,224.8V189h30.2v35.8H520.5z M548,222v-11h-5.5v-2.8h5.5v-16.5h-24.8v30.2h11v-8.2h2.8v8.2h11V222z
			 M534.3,205.5v-8.2h2.8v8.2H534.3z"/>
		<path class="st1" d="M551.1,225.2h-31v-36.5h31V225.2z M520.9,224.4h29.5v-35h-29.5V224.4z M548,222.3h-11.4v-8.2h-2v8.2h-11.8
			v-31h25.5v17.2h-5.5v2.1h5.5V222H548V222.3z M537.4,221.5h10.2v-10.1h-5.5v-3.6h5.5v-15.8h-24v29.5h10.2v-8.2h3.5V221.5z
			 M537.5,205.9h-3.5v-9h3.5V205.9z M534.7,205.1h2v-7.5h-2V205.1z"/>
	</g>
	<g>
		<path class="st1" d="M553.5,224.8V189h30.2v35.8H553.5z M581,222v-13.8h-5.5v-2.8h5.5v-13.8h-11v8.2h-2.8v-8.2h-11v30.2h11v-8.2
			h2.8v8.2h11V222z"/>
		<path class="st1" d="M584.1,225.2h-31v-36.5h31V225.2z M553.9,224.4h29.5v-35h-29.5V224.4z M581,222.2h-11.4V214h-2v8.2h-11.8v-31
			h11.8v8.2h2v-8.2h11.8v14.6h-5.5v2h5.5V222H581V222.2z M570.4,221.4h10.2v-12.9h-5.5V205h5.5V192h-10.2v8.2h-3.5V192h-10.2v29.5
			h10.2v-8.2h3.5V221.4z"/>
	</g>
	<g>
		<path class="st1" d="M586.5,211v-11H614v11H586.5z M611.3,208.3v-5.5h-22v5.5H611.3z"/>
		<path class="st1" d="M614.4,211.4h-28.2v-11.8h28.2V211.4z M586.9,210.6h26.8v-10.2h-26.8V210.6z M611.7,208.7h-22.8v-6.2h22.8
			V208.7z M589.7,207.9h21.2v-4.8h-21.2V207.9z"/>
	</g>
	<g>
		<path class="st1" d="M616.8,202.8V189h11v2.8h-8.2v11H616.8z M616.8,224.8V211h2.8v11h8.2v2.8H616.8z M619.5,205.5v-2.8h2.8v2.8
			H619.5z M619.5,211v-2.8h2.8v2.8H619.5z M622.3,208.3v-2.8h2.8v2.8H622.3z M627.8,194.5v-2.8h2.8v2.8H627.8z M627.8,222v-2.8h2.8
			v2.8H627.8z M630.5,197.3v-2.8h2.8v2.8H630.5z M630.5,219.3v-2.8h2.8v2.8H630.5z M633.3,194.5v-2.8h2.8v2.8H633.3z M633.3,222
			v-2.8h2.8v2.8H633.3z M644.3,202.8v-11h-8.2V189h11v13.8H644.3z M636,224.8V222h8.2v-11h2.8v13.8H636z M638.8,208.3v-2.8h2.8v2.8
			H638.8z M641.5,205.5v-2.8h2.8v2.8H641.5z M641.5,211v-2.8h2.8v2.8H641.5z"/>
		<path class="st1" d="M647.4,225.2h-11.8v-2.8h-2.7v-2.7h-2v2.7h-2.8v2.8h-11.8v-14.5h2.7v-2.8h2.8v-1.9h-2.8v-2.7h-2.7v-14.5h11.8
			v2.7h2.8v2.8h2v-2.8h2.8v-2.7h11.8v14.5h-2.8v2.7H642v1.9h2.7v2.8h2.7V225.2z M636.4,224.4h10.2v-13h-2v11h-8.2V224.4z
			 M617.2,224.4h10.2v-2h-8.2v-11h-2V224.4z M636.5,221.6h7.3v-10.2h-2.7v-2.7h-2.7v-3.5h2.7v-2.8h2.8v-10.1h-7.5v2.7h-2.8v2.8h-3.6
			v-2.8h-2.7v-2.7H620v10.1h2.7v2.8h2.8v3.5h-2.8v2.7H620v10.2h7.5v-2.8h2.7v-2.7h3.6v2.7h2.8V221.6z M635.6,221.6h0.1v-2.1h-2v2.1
			H635.6z M628.2,221.6h2v-2h-0.1v-0.1h-1.9V221.6z M631,218.9h2v-2h-2.1v1.9h0.1V218.9z M641.9,210.6h2.1v-2.1h-2v0.1h-0.1V210.6z
			 M619.9,210.6h2.1v-2.1h-2.1V210.6z M639.2,207.9h1.9v-0.1h0.1v-1.9h-2V207.9z M622.7,207.9h2v-2h-2V207.9z M641.9,205.1h2.1v-2.1
			h-2.1V205.1z M619.9,205.1h2.1v-2.1h-2v0.1h-0.1V205.1z M644.7,202.4h2v-13h-10.2v2h8.2V202.4z M617.2,202.4h1.9v-0.1h0.1v-10.9
			h8.2v-2h-10.2V202.4z M630.9,196.9h2.1v-2h-2.1V196.9z M633.7,194.1h2v-2.1h-2V194.1z M630.1,194.1h0.1v-2.1h-2v2.1H630.1z"/>
	</g>
</g>
<g>
	<g>
		<path class="st0" d="M1291.1,842.9V378.3h392v321.9h-179.1v142.8H1291.1z M1470.2,806.6V663.8h179.1V557.4h-179.1V521h179.1V414.6
			h-321.9v392H1470.2z"/>
		<path class="st0" d="M1508.8,847.8h-222.6V373.4h401.7V705h-179.1V847.8z M1295.9,838h203.1V695.3h179.1V383.1h-382.2V838z
			 M1475,811.4h-152.5V409.7h331.6v116.2H1475v26.6h179.1v116.2H1475V811.4z M1332.3,801.7h133V658.9h179.1v-96.7h-179.1v-46.1
			h179.1v-96.7h-312.1V801.7z"/>
	</g>
	<g>
		<path class="st0" d="M1719.4,842.9V378.3h392v464.6H1719.4z M2076.3,806.6V663.8h-71.4v-36.3h71.4V413.3h-321.9v392h142.8V698.8
			h36.3v106.4h142.8V806.6z M1898.5,592.4V486h36.3v106.4H1898.5z"/>
		<path class="st0" d="M2116.2,847.8h-401.7V373.4h401.7V847.8z M1724.2,838h382.2V383.1h-382.2V838z M2076.3,810.1h-147.6V703.7
			H1902v106.4h-152.5V408.4h331.6v223.9h-71.4v26.6h71.4v147.6h-4.9V810.1z M1938.4,800.4h133V668.7H2000v-46.1h71.4V418.2h-312.1
			v382.2h133V694h46.1V800.4z M1939.7,597.3h-46.1V481.1h46.1V597.3z M1903.3,587.6h26.6v-96.7h-26.6V587.6z"/>
	</g>
	<g>
		<path class="st0" d="M2147.7,842.9V378.3h392v464.6H2147.7z M2504.6,806.6v-392h-321.9v392h142.8V663.8h36.3v142.8H2504.6z
			 M2326.8,592.4V486h36.3v106.4H2326.8z"/>
		<path class="st0" d="M2544.5,847.8h-401.7V373.4h401.7V847.8z M2152.5,838h382.2V383.1h-382.2V838z M2509.4,811.4h-152.5V668.7
			h-26.6v142.8h-152.5V409.7h331.6V811.4z M2366.7,801.7h133V419.5h-312.1v382.2h133V658.9h46.1V801.7z M2368,597.3h-46.1V481.1
			h46.1V597.3z M2331.6,587.6h26.6v-96.7h-26.6V587.6z"/>
	</g>
	<g>
		<path class="st0" d="M2576,842.9V378.3h464.6v464.6H2576z M3004.3,806.6v-392h-179.1V521h-36.3V414.6h-179.1v392h106.4V663.8h36.3
			v142.8h106.4V663.8h36.3v142.8H3004.3z"/>
		<path class="st0" d="M3045.5,847.8h-474.4V373.4h474.4V847.8z M2580.8,838h454.9V383.1h-454.9V838z M3009.1,811.4h-118.8V668.7
			h-26.6v142.8h-116.2V668.7H2721v142.8h-116.2V409.7h188.8v106.4h26.6V409.7h188.8V811.4z M2900.1,801.7h99.3V419.5H2830v106.4
			h-46.1V419.5h-169.4v382.2h96.7V658.9h46.1v142.8h96.7V658.9h46.1V801.7z"/>
	</g>
	<g>
		<path class="st0" d="M3075.6,842.9V378.3h392v464.6H3075.6z M3432.5,806.6V700.1h-142.8v-36.3h142.8V557.4h-142.8V521h142.8V414.6
			h-321.9v392H3432.5z"/>
		<path class="st0" d="M3472.5,847.8h-401.7V373.4h401.7V847.8z M3080.5,838h382.2V383.1h-382.2V838z M3437.4,811.4h-331.6V409.7
			h331.6v116.2h-142.8v26.6h142.8v116.2h-142.8v26.6h142.8V811.4z M3115.5,801.7h312.1V705h-142.8v-46.1h142.8v-96.7h-142.8v-46.1
			h142.8v-96.7h-312.1V801.7z"/>
	</g>
	<g>
		<path class="st0" d="M3503.9,842.9V378.3h464.6v464.6H3503.9z M3932.2,806.6v-392h-106.4v142.8h-36.3V414.6H3683v142.8h-36.3
			V414.6h-106.4v392h179.1V700.1h36.3v106.4H3932.2z"/>
		<path class="st0" d="M3973.4,847.8h-474.4V373.4h474.4V847.8z M3508.8,838h454.9V383.1h-454.9V838z M3937.1,811.4h-186.2V705
			h-26.6v106.4h-188.8V409.7h116.2v142.8h26.6V409.7h116.1v142.8h26.6V409.7h116.1V811.4z M3760.6,801.7h166.8V419.5h-96.7v142.8
			h-46.1V419.5h-96.7v142.8h-46.1V419.5h-96.7v382.2h169.4V695.3h46.1V801.7z"/>
	</g>
	<g>
		<path class="st0" d="M4003.6,842.9V378.3h392v464.6H4003.6z M4360.5,806.6v-392h-321.9v392H4360.5z M4182.7,700.1V521h36.3v179.1
			H4182.7z"/>
		<path class="st0" d="M4400.4,847.8h-401.7V373.4h401.7V847.8z M4008.5,838h382.2V383.1h-382.2V838z M4365.4,811.4h-331.6V409.7
			h331.6V811.4z M4043.5,801.7h312.1V419.5h-312.1V801.7z M4223.9,705h-46.1V516.2h46.1V705z M4187.6,695.3h26.6V525.9h-26.6V695.3z
			"/>
	</g>
	<g>
		<path class="st0" d="M4431.9,842.9V378.3h392v464.6H4431.9z M4788.8,806.6V663.8h-71.4v-36.3h71.4V413.3h-321.9v392h142.8V698.8
			h36.3v106.4h142.8V806.6z M4611,592.4V486h36.3v106.4H4611z"/>
		<path class="st0" d="M4828.7,847.8H4427V373.4h401.7V847.8z M4436.8,838H4819V383.1h-382.2V838z M4788.8,810.1h-147.6V703.7h-26.6
			v106.4h-152.5V408.4h331.6v223.9h-71.4v26.6h71.4v147.6h-4.9V810.1z M4650.9,800.4h133V668.7h-71.4v-46.1h71.4V418.2h-312.1v382.2
			h133V694h46.1V800.4z M4652.2,597.3h-46.1V481.1h46.1V597.3z M4615.9,587.6h26.6v-96.7h-26.6V587.6z"/>
	</g>
	<g>
		<path class="st0" d="M4860.2,842.9V378.3h392v464.6H4860.2z M5217.1,806.6V627.5h-71.4v-36.3h71.4V412h-142.8v106.4H5038V412
			h-142.8v392H5038V697.5h36.3V804h142.8V806.6z"/>
		<path class="st0" d="M5257,847.8h-401.7V373.4H5257V847.8z M4865.1,838h382.2V383.1h-382.2V838z M5217.1,808.8h-147.6V702.4h-26.6
			v106.4h-152.5V407.1h152.5v106.4h26.6V407.1H5222V596h-71.4v26.6h71.4v184h-4.9V808.8z M5079.2,799.1h133V632.3h-71.4v-46.1h71.4
			V416.9h-133v106.4h-46.1V416.9h-133v382.2h133V692.7h46.1V799.1z"/>
	</g>
	<g>
		<path class="st0" d="M5288.5,663.8V521h356.9v142.8H5288.5z M5610.4,628.8v-71.4h-285.5v71.4H5610.4z"/>
		<path class="st0" d="M5650.3,668.7h-366.6V516.2h366.6V668.7z M5293.4,658.9h347.2v-133h-347.2V658.9z M5615.2,633.6H5320v-81.1
			h295.3V633.6z M5329.7,623.9h275.8v-61.6h-275.8V623.9z"/>
	</g>
	<g>
		<path class="st0" d="M5681.8,557.4V378.3h142.8v36.3h-106.4v142.8H5681.8z M5681.8,842.9V663.8h36.3v142.8h106.4v36.3H5681.8z
			 M5716.8,592.4v-36.3h36.3v36.3H5716.8z M5716.8,663.8v-36.3h36.3v36.3H5716.8z M5753.1,628.8v-36.3h36.3v36.3H5753.1z
			 M5824.5,449.6v-36.3h36.3v36.3H5824.5z M5824.5,806.6v-36.3h36.3v36.3H5824.5z M5859.6,486v-36.3h36.3V486H5859.6z M5859.6,771.5
			v-36.3h36.3v36.3H5859.6z M5895.9,449.6v-36.3h36.3v36.3H5895.9z M5895.9,806.6v-36.3h36.3v36.3H5895.9z M6038.7,557.4V414.6
			h-106.4v-36.3H6075v179.1H6038.7z M5930.9,842.9v-36.3h106.4V663.8h36.3v179.1H5930.9z M5967.3,628.8v-36.3h36.3v36.3H5967.3z
			 M6002.3,592.4v-36.3h36.3v36.3H6002.3z M6002.3,663.8v-36.3h36.3v36.3H6002.3z"/>
		<path class="st0" d="M6078.6,847.8h-152.5v-36.3h-35v-35h-25.3v35h-36.3v36.3h-152.5V658.9h35v-36.3h36.4v-25.3h-36.4v-35h-35
			V373.4h152.5v35h36.3v36.3h25.3v-36.3h36.3v-35h152.5v188.8h-36.3v35h-35v25.3h35v36.3h35V847.8z M5935.8,838h133V668.7h-26.6
			v142.8h-106.4V838z M5686.6,838h133v-26.6h-106.4V668.7h-26.6V838z M5937.1,801.7h95.4v-133h-35v-35h-35v-46.1h35v-36.3h36.4
			V419.5h-96.7v35h-36.3v36.3h-46.1v-36.3h-35v-35H5723v131.7h35v36.3h36.3v46.1H5758v35h-35v133h96.7v-36.3h35v-35h46.1v35h36.3
			V801.7z M5926.1,801.7h1.3v-26.6h-26.6v26.6H5926.1z M5829.4,801.7h26.6v-25.3h-1.3v-1.3h-25.3V801.7z M5865.7,766.7h25.3v-26.6
			h-26.6v25.3h1.3V766.7z M6007.2,658.9h26.6v-26.6h-25.3v1.3h-1.3V658.9z M5721.7,658.9h26.6v-26.6h-26.6V658.9z M5972.2,623.9
			h25.3v-1.3h1.3v-25.3h-26.6V623.9z M5758,623.9h26.6v-26.6H5758V623.9z M6007.2,587.6h26.6v-26.6h-26.6V587.6z M5721.7,587.6h26.6
			v-26.6H5723v1.3h-1.3V587.6z M6043.5,552.5h26.6V383.1h-133v26.6h106.4V552.5z M5686.6,552.5h25.3v-1.3h1.3V409.7h106.4v-26.6
			h-133V552.5z M5864.4,481.1h26.6v-26.6h-26.6V481.1z M5900.8,444.8h26.6v-26.6h-26.6V444.8z M5854.7,444.8h1.3v-26.6h-26.6v26.6
			H5854.7z"/>
	</g>
</g>
</svg>
