<svg id="github" xmlns="http://www.w3.org/2000/svg" width="24" height="23.408" viewBox="0 0 24 23.408">
  <path id="Path_892" data-name="Path 892" d="M12,0A12,12,0,0,0,8.206,23.387c.6.111.82-.261.82-.577,0-.286-.011-1.231-.016-2.234C5.672,21.3,4.967,19.16,4.967,19.16A3.179,3.179,0,0,0,3.635,17.4c-1.089-.745.082-.729.082-.729a2.523,2.523,0,0,1,1.84,1.237,2.555,2.555,0,0,0,3.492,1,2.555,2.555,0,0,1,.762-1.6c-2.665-.3-5.467-1.332-5.467-5.93A4.643,4.643,0,0,1,5.579,8.152,4.312,4.312,0,0,1,5.7,4.977S6.7,4.654,9,6.207a11.377,11.377,0,0,1,6.01,0c2.29-1.553,3.3-1.23,3.3-1.23a4.307,4.307,0,0,1,.118,3.176,4.635,4.635,0,0,1,1.235,3.221c0,4.609-2.807,5.624-5.479,5.921a2.868,2.868,0,0,1,.814,2.222c0,1.606-.014,2.9-.014,3.293,0,.319.216.694.824.576A12,12,0,0,0,12,0Z" fill="#181616" fill-rule="evenodd"/>
  <path id="Path_893" data-name="Path 893" d="M21.576,85.883c-.026.06-.12.078-.206.037s-.136-.12-.108-.18.12-.078.207-.037.137.121.107.181Zm-.148-.109" transform="translate(-17.031 -68.654)" fill="#181616"/>
  <path id="Path_894" data-name="Path 894" d="M24.046,88.09c-.057.053-.169.028-.245-.055a.183.183,0,0,1-.035-.249c.059-.053.168-.028.246.055s.094.2.034.249Zm-.114-.123" transform="translate(-19.015 -70.319)" fill="#181616"/>
  <path id="Path_895" data-name="Path 895" d="M26.4,91.254c-.074.051-.194,0-.268-.1s-.074-.235,0-.286.193,0,.268.1.073.236,0,.289Zm0,0" transform="translate(-20.892 -72.792)" fill="#181616"/>
  <path id="Path_896" data-name="Path 896" d="M29.3,94.673c-.066.073-.206.053-.308-.046a.231.231,0,0,1-.068-.307c.067-.073.208-.052.311.046s.136.235.066.307Zm0,0" transform="translate(-23.148 -75.543)" fill="#181616"/>
  <path id="Path_897" data-name="Path 897" d="M33.437,97.164c-.029.094-.164.137-.3.1s-.225-.151-.2-.246.164-.139.3-.1.225.15.2.246Zm0,0" transform="translate(-26.39 -77.646)" fill="#181616"/>
  <path id="Path_898" data-name="Path 898" d="M38.324,97.876c0,.1-.112.181-.255.183s-.26-.077-.261-.174.113-.181.256-.184.26.077.26.175Zm0,0" transform="translate(-30.295 -78.286)" fill="#181616"/>
  <path id="Path_899" data-name="Path 899" d="M42.939,97.247c.017.1-.082.2-.224.222s-.268-.034-.286-.13.084-.2.223-.224.269.033.287.132Zm0,0" transform="translate(-33.996 -77.812)" fill="#181616"/>
</svg>
