<svg xmlns="http://www.w3.org/2000/svg" width="158.719" height="15.802" viewBox="0 0 158.719 15.802">
  <g id="framework-x" transform="translate(-39.518 -12.171)">
    <g id="Group_5" data-name="Group 5" transform="translate(41.135 13.746)">
      <path id="Path_19" data-name="Path 19" d="M102.063,16.886h5.463c0,.917.014,1.788,0,2.658-.012.573.213.838.807.838s.845-.256.808-.832c-.008-.13,0-.262,0-.392.01-2.321.011-2.335,2.377-2.313,1,.009,2.324-.262,2.9.258.5.455.182,1.841.186,2.817.011,2.847-.02,5.695.02,8.542.011.743-.221.942-.948.936-2.175-.017-2.176.013-2.176-2.147,0-.589-.016-1.179,0-1.767s-.229-.829-.816-.828-.813.273-.8.842c.017,1.047-.016,2.1.012,3.141.015.541-.163.731-.724.754-2.391.1-2.39.116-2.39-2.223,0-.556-.016-1.113,0-1.669s-.2-.846-.8-.846c-.584,0-.831.242-.821.824.017,1.08-.022,2.161.013,3.24.02.631-.347.768-.8.645-.764-.206-2.177.6-2.233-.51C101.943,24.908,102.063,20.948,102.063,16.886Z" transform="translate(-59.59 -16.781)" fill="#fff"/>
      <path id="Path_20" data-name="Path 20" d="M147.33,16.907c0,1.274.016,2.477-.007,3.679-.011.618.124,1.005.86.986.71-.018.768-.442.761-.985-.013-.981.021-1.964-.012-2.945-.02-.575.142-.845.768-.808.74.043,1.486.01,2.281.01.028.4.064.688.064.973,0,3.535-.021,7.069.021,10.6.01.794-.237,1.021-1,.981a27.6,27.6,0,0,0-3.434,0c-.914.067-1.148-.29-1.06-1.12a5.149,5.149,0,0,0-.024-1.66,1.219,1.219,0,0,0-.739-.746c-.533-.152-.854.155-.84.755.016.687-.017,1.375.008,2.062.019.5-.157.705-.677.7q-2.062-.036-4.123,0c-.519.009-.68-.2-.678-.695.013-3.731,0-7.461.033-11.192a.88.88,0,0,1,.575-.631c.773-.078,1.559-.03,2.506-.03,0,1.333.021,2.595-.008,3.856-.017.722.371,1,.967.82a1.156,1.156,0,0,0,.623-.857c.071-1.23.029-2.465.029-3.759Z" transform="translate(-66.368 -16.791)" fill="#fff"/>
      <path id="Path_21" data-name="Path 21" d="M122.224,23.018c0-1.8.02-3.6-.011-5.4-.011-.606.2-.789.793-.784q4.319.036,8.638,0c.616-.006.764.223.777.8.05,2.316.068,2.316-2.2,2.316a8.739,8.739,0,0,0-1.759.035,1.21,1.21,0,0,0-.742.742c-.152.537.161.846.759.837,1.08-.016,2.16.013,3.239-.01.5-.011.671.165.7.677.138,2.437.153,2.436-2.273,2.436-.523,0-1.048.019-1.57,0-.612-.028-.907.2-.894.85.011.619.332.778.876.769,1.014-.016,2.029.018,3.042-.012.563-.017.805.125.823.756.066,2.36.089,2.359-2.255,2.359s-4.712-.022-7.067.014c-.686.011-.907-.2-.891-.889C122.251,26.682,122.224,24.849,122.224,23.018Z" transform="translate(-63.241 -16.791)" fill="#fff"/>
      <path id="Path_22" data-name="Path 22" d="M204.647,23.922c0,1.726.02,3.322-.027,4.914-.006.189-.371.514-.584.526a25.6,25.6,0,0,1-3.04,0,.891.891,0,0,1-.6-.6,12.407,12.407,0,0,1-.026-1.959c.016-.564-.1-.952-.79-.954-.663,0-.852.32-.83.917.024.654-.018,1.31.011,1.963.024.523-.2.686-.7.674-.949-.024-1.9-.028-2.846,0-.533.016-.76-.143-.758-.717q.028-5.546,0-11.092c0-.539.156-.771.724-.75.948.033,1.9.032,2.846,0,.559-.019.759.194.731.743-.033.653.007,1.309-.011,1.963-.016.564.195.848.8.849.582,0,.836-.238.822-.822-.019-.848,0-1.7,0-2.633h4.279c0,1.636.034,3.29-.053,4.938-.009.165-.745.351-1.161.422-.5.084-1.1-.114-1.139.706-.027.588.139.956.813.924C203.555,23.9,204.012,23.922,204.647,23.922Z" transform="translate(-76.308 -16.791)" fill="#fff"/>
      <path id="Path_23" data-name="Path 23" d="M187.364,16.85c0,2.146.013,4.164-.026,6.183,0,.156-.355.4-.575.439-.378.075-.815-.067-1.162.059a.96.96,0,0,0-.545.72,1.054,1.054,0,0,0,.552.809,7.942,7.942,0,0,0,1.757.038c0,1.348.022,2.581-.025,3.811-.007.166-.355.449-.555.457-1.044.046-2.095.052-3.138-.006a.815.815,0,0,1-.535-.576c-.069-.713.044-1.447-.063-2.151a1.182,1.182,0,0,0-.731-.749c-.528-.153-.86.144-.847.749.016.686-.016,1.374.008,2.061.017.49-.14.718-.668.7-1.013-.028-2.03.023-3.041-.035a.807.807,0,0,1-.557-.553q-.05-5.691,0-11.383a.8.8,0,0,1,.559-.552C180.91,16.84,184.048,16.85,187.364,16.85Zm-4.281,3.887a3.579,3.579,0,0,0-.029-1.169,1.34,1.34,0,0,0-.736-.759c-.528-.154-.861.142-.849.748.016.786.018,1.573,0,2.359-.014.575.216.837.81.837s.834-.262.808-.837C183.069,21.523,183.083,21.13,183.083,20.736Z" transform="translate(-73.185 -16.794)" fill="#fff"/>
      <path id="Path_24" data-name="Path 24" d="M77.634,16.851V23.5c-.509,0-1.014.012-1.519,0-.606-.019-.9.319-.748.846a1.173,1.173,0,0,0,.748.735c1.575.19,1.579.156,1.579,1.771,0,2.547,0,2.547-2.541,2.548-1.746,0-1.746,0-1.746-1.773a2.654,2.654,0,0,0-.034-1.065,1.246,1.246,0,0,0-.821-.65.97.97,0,0,0-.719.63,12.515,12.515,0,0,0-.033,2.154c.015.482-.126.726-.661.711-1.013-.028-2.03.023-3.041-.034a.8.8,0,0,1-.563-.547c-.024-3.892-.006-7.784.007-11.676,0-.057.055-.112.115-.228a2.827,2.827,0,0,1,.428-.06C71.227,16.849,74.366,16.851,77.634,16.851ZM71.8,20.757c0,.393.014.787,0,1.18-.025.59.271.925.821.777a1.169,1.169,0,0,0,.755-.726,9.874,9.874,0,0,0,0-2.448,1.171,1.171,0,0,0-.749-.732c-.545-.15-.852.176-.827.77C71.811,19.971,71.8,20.364,71.8,20.757Z" transform="translate(-53.349 -16.794)" fill="#fff"/>
      <path id="Path_25" data-name="Path 25" d="M50.357,16.885H60.4c0,.919.034,1.821-.035,2.715-.011.139-.49.338-.757.345-1.374.035-2.75.025-4.125.013-.548,0-.962.063-.977.769-.016.742.384.859,1,.852,1.595-.02,3.19-.007,4.721-.007.1.171.15.224.154.282.212,2.825.211,2.825-2.62,2.825-.72,0-1.443.039-2.16-.01-.8-.055-1.139.224-1.094,1.058.054.979-.011,1.964.021,2.946.018.56-.195.75-.743.732-.949-.031-1.9-.025-2.848,0-.483.011-.713-.129-.71-.663.018-3.83.013-7.661.02-11.491A1.521,1.521,0,0,1,50.357,16.885Z" transform="translate(-50.219 -16.8)" fill="#fff"/>
      <path id="Path_26" data-name="Path 26" d="M84.789,16.919h10.1c.025.276.074.555.075.833,0,3.566-.022,7.131.023,10.7.011.812-.264,1.02-1.012.969a20.4,20.4,0,0,0-2.452,0c-.627.033-.885-.16-.854-.823.047-1.012,0-2.027.016-3.041.008-.547-.157-.861-.773-.872-.652-.012-.861.29-.848.9.023,1.046-.011,2.094.012,3.14.011.5-.158.709-.677.7-.98-.027-1.965.029-2.941-.035-.235-.016-.641-.364-.643-.562C84.779,24.892,84.789,20.969,84.789,16.919Zm5.892,3.815a4.207,4.207,0,0,0-.032-1.267c-.092-.277-.5-.652-.73-.628-.3.032-.772.388-.8.65a10.547,10.547,0,0,0,0,2.546,1.041,1.041,0,0,0,.779.667c.267,0,.653-.4.759-.7A3.967,3.967,0,0,0,90.681,20.734Z" transform="translate(-56.472 -16.806)" fill="#fff"/>
      <path id="Path_27" data-name="Path 27" d="M234.718,29.388c-.018-.833-.195-1.411-1.239-1.123l.3-.351c-.363-.294-.722-.809-1.091-.817s-.733.5-1.006.908c-.69.107-1.109.443-1.009,1.383-.894,0-1.734.032-2.569-.025a.739.739,0,0,1-.493-.521c-.045-1.2-.023-2.406-.023-3.664.83-.018,1.4-.247,1.153-1.293l.395.31c.269-.371.736-.736.747-1.114.009-.327-.5-.668-.9-.91a1.149,1.149,0,0,0-1.395-1.083c0-1.3-.022-2.534.026-3.767.007-.164.357-.435.563-.449.777-.053,1.56-.021,2.392-.021.138.688.158,1.475,1.311,1.112l-.306.36c.363.294.72.81,1.09.819s.733-.5,1.006-.906c.687-.11,1.114-.437,1.008-1.384.894,0,1.734-.032,2.568.025a.735.735,0,0,1,.5.519c.045,1.2.023,2.4.023,3.675-.87-.032-1.3.336-1.225,1.2-.829-.052-1.29.255-1.11,1.076.046.209.288.525.449.53.555.019.643.3.777.769.08.284.605.442,1.1.771,0,1.033.022,2.268-.026,3.5-.007.164-.358.433-.564.448C236.4,29.42,235.614,29.388,234.718,29.388Z" transform="translate(-82.3 -16.792)" fill="#fff"/>
      <path id="Path_28" data-name="Path 28" d="M170.088,16.953v1.062c0,3.5-.016,7,.013,10.5.006.682-.2.9-.886.893q-4.217-.052-8.435,0c-.686.008-.9-.2-.89-.889.029-3.6.016-7.193.011-10.789,0-.483-.034-.9.68-.889,3.008.029,6.016.013,9.023.019A2.991,2.991,0,0,1,170.088,16.953ZM165.8,23.12c0-.786-.014-1.573,0-2.359.014-.59-.272-.926-.822-.777-.306.083-.745.461-.756.722-.07,1.6-.07,3.211,0,4.813.011.264.445.645.75.729.545.15.842-.177.828-.77C165.787,24.694,165.8,23.907,165.8,23.12Z" transform="translate(-70.056 -16.791)" fill="#fff"/>
      <path id="Path_29" data-name="Path 29" d="M216.35,22.606c1.24,0,2.481.031,3.719-.011.81-.028.676.5.68.978s.114.981-.688.971q-3.816-.052-7.634,0c-.809.011-.676-.5-.68-.979s-.114-1,.689-.971C213.739,22.638,215.045,22.606,216.35,22.606Z" transform="translate(-79.434 -17.832)" fill="#fff"/>
    </g>
    <g id="Group_6" data-name="Group 6" transform="translate(39.518 12.171)">
      <path id="Path_2" data-name="Path 2" d="M107.979,14.878c2.261,0,4.522.023,6.782-.012.773-.012,1.123.183,1.117,1.04-.032,4.586-.025,9.173,0,13.76,0,.711-.229.993-.964.99q-6.929-.032-13.858,0c-.734,0-.967-.277-.964-.989.02-4.586.027-9.173,0-13.76-.006-.856.342-1.053,1.116-1.04C103.458,14.9,105.718,14.878,107.979,14.878Zm-6.268,1.661c0,4.063-.12,8.022.078,11.967.056,1.108,1.469.3,2.233.51.455.122.822-.015.8-.645-.034-1.079,0-2.16-.013-3.24-.009-.582.237-.825.821-.824.6,0,.817.28.8.846s0,1.112,0,1.669c0,2.339,0,2.321,2.39,2.223.562-.023.74-.213.724-.754-.029-1.047,0-2.094-.012-3.141-.01-.569.206-.842.8-.842s.835.249.816.828,0,1.178,0,1.767c0,2.159,0,2.129,2.176,2.147.727.006.958-.193.948-.936-.04-2.846-.009-5.695-.02-8.542,0-.976.316-2.362-.186-2.817-.574-.521-1.9-.249-2.9-.258-2.367-.022-2.367-.007-2.377,2.313,0,.131-.007.262,0,.392.035.577-.219.832-.808.832s-.819-.265-.807-.838c.019-.87,0-1.741,0-2.658Z" transform="translate(-57.62 -14.86)" fill="#141515"/>
      <path id="Path_3" data-name="Path 3" d="M153.3,22.8c0,2.261-.027,4.522.014,6.782.015.813-.26,1.086-1.076,1.081q-6.83-.044-13.661,0c-.84.006-1.06-.312-1.055-1.1q.041-6.781,0-13.563c-.007-.858.265-1.138,1.128-1.131q6.781.052,13.563,0c.889-.007,1.121.32,1.106,1.153C153.273,18.274,153.3,20.534,153.3,22.8Zm-6.329-6.244h-3.108c0,1.293.042,2.529-.029,3.759a1.158,1.158,0,0,1-.623.857c-.6.183-.984-.1-.967-.82.029-1.261.008-2.523.008-3.856-.947,0-1.732-.048-2.506.03a.877.877,0,0,0-.575.631c-.036,3.73-.02,7.461-.033,11.192,0,.5.16.7.678.695q2.062-.036,4.123,0c.519.009.7-.2.677-.7-.025-.686.007-1.374-.008-2.062-.014-.6.307-.908.84-.755a1.221,1.221,0,0,1,.739.746,5.149,5.149,0,0,1,.024,1.66c-.089.83.145,1.186,1.06,1.12a27.6,27.6,0,0,1,3.434,0c.766.039,1.012-.188,1-.981-.043-3.534-.017-7.069-.021-10.6,0-.285-.037-.57-.064-.973-.8,0-1.541.034-2.281-.01-.627-.037-.787.233-.768.808.034.98,0,1.963.012,2.945.007.543-.05.967-.761.985-.736.019-.872-.368-.86-.986C146.989,19.028,146.973,17.826,146.973,16.551Z" transform="translate(-64.392 -14.859)" fill="#141515"/>
      <path id="Path_4" data-name="Path 4" d="M133.663,22.786c0,2.261-.026,4.522.014,6.782.014.8-.238,1.1-1.066,1.091q-5.651-.049-11.3,0c-.828.007-1.071-.292-1.066-1.092q.042-6.83,0-13.661c0-.755.232-1.046,1.015-1.04q5.7.043,11.4,0c.784-.006,1.026.286,1.015,1.041C133.641,18.2,133.663,20.493,133.663,22.786Zm-11.8-.125c0,1.832.028,3.665-.014,5.5-.016.69.206.9.891.889,2.355-.036,4.711-.014,7.067-.014s2.321,0,2.255-2.359c-.017-.632-.26-.773-.823-.756-1.013.031-2.028,0-3.042.012-.545.008-.864-.151-.876-.769-.012-.65.283-.878.894-.85.523.024,1.047,0,1.57,0,2.425,0,2.41,0,2.273-2.436-.029-.513-.2-.688-.7-.677-1.079.023-2.159-.006-3.239.01-.6.008-.911-.3-.759-.837a1.21,1.21,0,0,1,.742-.742,8.739,8.739,0,0,1,1.759-.035c2.266,0,2.247,0,2.2-2.316-.012-.579-.161-.808-.777-.8q-4.319.039-8.638,0c-.593,0-.8.178-.793.784C121.889,19.062,121.868,20.862,121.868,22.662Z" transform="translate(-61.267 -14.86)" fill="#141515"/>
      <path id="Path_5" data-name="Path 5" d="M205.9,22.859c0,2.228-.024,4.456.013,6.683.012.775-.185,1.124-1.041,1.116-3.8-.035-7.6-.027-11.4,0-.712,0-.992-.231-.989-.965q.032-6.929,0-13.857c0-.736.279-.967.99-.964,3.8.022,7.6.03,11.4,0,.858-.008,1.052.344,1.039,1.117C205.881,18.272,205.9,20.566,205.9,22.859Zm-1.613.706c-.635,0-1.091-.017-1.547,0-.673.032-.84-.335-.813-.924.038-.819.642-.622,1.139-.706.416-.07,1.153-.256,1.161-.422.088-1.648.053-3.3.053-4.938H200c0,.938-.014,1.786,0,2.633.013.584-.24.822-.822.822-.6,0-.813-.284-.8-.849.019-.654-.022-1.31.011-1.963.028-.549-.172-.762-.731-.743-.948.032-1.9.033-2.846,0-.568-.02-.727.212-.724.75q.025,5.546,0,11.092c0,.574.224.733.758.717.948-.029,1.9-.025,2.846,0,.5.012.721-.152.7-.674-.029-.653.012-1.309-.011-1.963-.021-.6.166-.919.83-.917.693,0,.806.39.79.954a12.409,12.409,0,0,0,.026,1.959.892.892,0,0,0,.6.6,25.429,25.429,0,0,0,3.04,0c.213-.011.578-.337.584-.526C204.311,26.886,204.29,25.291,204.29,23.565Z" transform="translate(-74.334 -14.859)" fill="#141515"/>
      <path id="Path_6" data-name="Path 6" d="M188.623,22.84c0,2.261-.022,4.522.012,6.782.011.761-.242,1.042-1.02,1.036q-5.7-.042-11.4,0c-.788.006-1.014-.294-1.011-1.044q.034-6.879,0-13.759c0-.716.239-.989.969-.985q5.749.034,11.5,0c.739,0,.968.286.96.994C188.606,18.188,188.623,20.514,188.623,22.84Zm-1.618-6.348c-3.316,0-6.454-.011-9.592.025a.8.8,0,0,0-.559.552q-.05,5.691,0,11.383a.8.8,0,0,0,.557.553c1.011.058,2.027.007,3.041.035.528.014.686-.214.668-.7-.025-.686.007-1.374-.008-2.061-.013-.6.319-.9.847-.749a1.182,1.182,0,0,1,.731.749c.107.7-.006,1.438.063,2.151a.818.818,0,0,0,.535.576c1.044.057,2.093.052,3.138.006.2-.009.548-.291.555-.457.048-1.23.025-2.463.025-3.811a7.942,7.942,0,0,1-1.757-.038,1.055,1.055,0,0,1-.552-.809.959.959,0,0,1,.545-.72c.347-.127.784.016,1.162-.059.22-.043.573-.283.575-.439C187.018,20.657,187.005,18.638,187.005,16.492Z" transform="translate(-71.208 -14.861)" fill="#141515"/>
      <path id="Path_7" data-name="Path 7" d="M78.943,22.76c0,2.261-.023,4.522.012,6.782.012.773-.183,1.125-1.04,1.116-3.8-.035-7.6-.027-11.4,0-.712,0-.992-.23-.989-.964q.032-6.929,0-13.857c0-.734.278-.968.989-.964,3.8.022,7.6.03,11.4,0,.857-.008,1.053.343,1.04,1.116C78.92,18.239,78.943,20.5,78.943,22.76Zm-1.671-6.269c-3.269,0-6.407,0-9.546,0a2.812,2.812,0,0,0-.428.06c-.06.115-.115.171-.115.228-.014,3.892-.031,7.784-.007,11.676a.807.807,0,0,0,.563.547c1.011.057,2.027.007,3.041.034.535.015.676-.229.661-.711a12.514,12.514,0,0,1,.033-2.154.97.97,0,0,1,.719-.63,1.246,1.246,0,0,1,.821.65,2.653,2.653,0,0,1,.034,1.065c0,1.773,0,1.773,1.746,1.773,2.541,0,2.541,0,2.541-2.548,0-1.614,0-1.58-1.579-1.771a1.177,1.177,0,0,1-.748-.735c-.153-.528.142-.865.748-.846.5.016,1.01,0,1.519,0C77.272,20.84,77.272,18.727,77.272,16.491Z" transform="translate(-51.37 -14.859)" fill="#141515"/>
      <path id="Path_8" data-name="Path 8" d="M55.765,25.926c0,1.355-.028,2.56.011,3.763.023.734-.274.977-.987.965-1.832-.031-3.666-.034-5.5,0-.749.015-1.051-.219-1.046-1.008q.039-6.873,0-13.747c0-.76.242-1.041,1.019-1.035q5.695.042,11.391,0c.775-.006,1.029.27,1.021,1.033q-.045,4.517,0,9.033c.009.793-.3,1.023-1.049,1.005C59.062,25.9,57.5,25.926,55.765,25.926ZM50,16.52a1.593,1.593,0,0,0-.118.365c-.007,3.83,0,7.661-.02,11.491,0,.533.227.673.71.663.949-.021,1.9-.029,2.848,0,.548.018.762-.173.743-.732-.032-.981.033-1.967-.021-2.946-.046-.835.295-1.113,1.094-1.058.717.049,1.44.01,2.16.01,2.831,0,2.831,0,2.62-2.825,0-.057-.058-.111-.154-.282-1.53,0-3.126-.013-4.721.007-.612.007-1.012-.11-1-.852.016-.706.428-.774.977-.769,1.375.012,2.751.022,4.125-.013.267-.007.746-.206.757-.345.07-.894.035-1.8.035-2.715Z" transform="translate(-48.244 -14.86)" fill="#141515"/>
      <path id="Path_9" data-name="Path 9" d="M82.817,22.735c0-2.261.026-4.522-.014-6.782-.014-.8.238-1.1,1.066-1.092q5.651.05,11.3,0c.828-.007,1.071.29,1.066,1.091q-.042,6.83,0,13.661c0,.754-.231,1.047-1.015,1.041q-5.7-.043-11.4,0c-.783.006-1.026-.285-1.015-1.041C82.838,27.322,82.817,25.029,82.817,22.735Zm1.613-6.188c0,4.05-.01,7.973.029,11.9,0,.2.408.546.643.562.977.064,1.961.008,2.941.035.519.014.689-.2.677-.7-.023-1.046.011-2.094-.012-3.14-.013-.609.2-.91.848-.9.616.011.781.325.773.872-.016,1.014.031,2.03-.016,3.041-.03.663.227.856.854.823a20.4,20.4,0,0,1,2.452,0c.748.051,1.022-.157,1.012-.969-.045-3.565-.018-7.13-.023-10.7,0-.279-.048-.557-.075-.833C91.139,16.547,87.849,16.547,84.43,16.547Z" transform="translate(-54.495 -14.859)" fill="#141515"/>
      <path id="Path_10" data-name="Path 10" d="M226.527,23.94c.372-.273.746-.541,1.112-.822.117-.089.313-.232.3-.309a.845.845,0,0,0-.306-.41,4.027,4.027,0,0,1-.991-.967c-1.007-.068-1.061-.732-1.035-1.543.043-1.308.046-2.62,0-3.928-.029-.793.217-1.144,1.057-1.1a26.768,26.768,0,0,0,2.946,0c.8-.043,1.292.156,1.189,1.133l.273-.234c.3.364.587.731.889,1.089.111.132.245.244.368.365.121-.125.344-.247.346-.373.007-.6.308-.806.863-.816.111,0,.313-.2.31-.3-.022-.9.578-.867,1.2-.858.949.014,1.9.046,2.847-.009.839-.049,1.187.222,1.148,1.107-.06,1.373-.012,2.75-.017,4.124,0,.994-.009.994-.863,1.355-.387.315-.777.628-1.161.949-.114.1-.312.233-.294.31a.853.853,0,0,0,.306.409,3.757,3.757,0,0,1,.976.972c1.064.033,1.065.746,1.046,1.539-.032,1.309-.043,2.62,0,3.929.029.795-.22,1.143-1.057,1.1a26.767,26.767,0,0,0-2.946,0c-.8.044-1.29-.158-1.189-1.134l-.274.235c-.295-.364-.586-.731-.886-1.09-.111-.132-.245-.243-.369-.365-.12.125-.242.248-.362.374-.251.264-.494.535-.753.79-.124.123-.4.219-.4.324.016.9-.583.867-1.2.858-.949-.014-1.9-.045-2.848.009-.838.048-1.188-.221-1.148-1.107.061-1.373.046-2.751,0-4.124-.023-.754.152-1.235,1.068-1.128Zm7.832,5.09c.9,0,1.678.032,2.455-.021.206-.014.558-.284.564-.448.047-1.233.026-2.468.026-3.5-.5-.329-1.023-.487-1.1-.771-.134-.473-.222-.751-.777-.769-.161-.006-.4-.322-.449-.53-.18-.821.281-1.128,1.11-1.076-.079-.867.355-1.234,1.225-1.2,0-1.27.022-2.474-.023-3.675a.74.74,0,0,0-.5-.519c-.834-.057-1.673-.025-2.568-.025.106.947-.32,1.275-1.008,1.384-.273.405-.645.915-1.006.906s-.727-.525-1.09-.819l.306-.36c-1.152.363-1.172-.424-1.311-1.112-.832,0-1.615-.032-2.392.021-.206.014-.557.285-.563.449-.047,1.233-.026,2.468-.026,3.767a1.149,1.149,0,0,1,1.395,1.083c.4.242.905.583.9.91-.011.378-.478.744-.747,1.114l-.395-.31c.248,1.048-.324,1.275-1.153,1.293,0,1.258-.022,2.462.023,3.664a.737.737,0,0,0,.493.521c.835.057,1.675.025,2.569.025-.1-.94.319-1.276,1.009-1.383.273-.405.645-.916,1.006-.908s.727.524,1.091.817l-.3.351C234.164,27.618,234.341,28.2,234.359,29.03Z" transform="translate(-80.323 -14.858)" fill="#141515"/>
      <path id="Path_11" data-name="Path 11" d="M171.343,22.719c0,2.261-.027,4.522.015,6.781.016.825-.2,1.17-1.1,1.161-3.767-.041-7.535-.032-11.3,0-.763.006-1.037-.247-1.033-1.022q.038-6.879,0-13.759c0-.792.3-1.012,1.048-1.008q5.7.037,11.4,0c.718,0,.991.244.981.971C171.325,18.133,171.343,20.426,171.343,22.719Zm-1.61-6.122a3.125,3.125,0,0,0-.483-.1c-3.008-.006-6.016.01-9.023-.019-.714-.007-.681.405-.68.889.006,3.6.019,7.194-.011,10.789-.006.686.2.9.89.889q4.217-.05,8.435,0c.691.008.892-.211.886-.893-.029-3.5-.013-7-.013-10.5C169.732,17.31,169.732,16.961,169.732,16.6Z" transform="translate(-68.082 -14.86)" fill="#141515"/>
      <path id="Path_12" data-name="Path 12" d="M215.89,20.638c1.7,0,3.408.029,5.11-.013.784-.019,1.045.283,1.015,1.04-.043,1.079-.029,2.162,0,3.242.014.621-.224.889-.862.886q-5.258-.022-10.514,0c-.638,0-.877-.264-.863-.885.025-1.08.039-2.163,0-3.242-.031-.758.231-1.06,1.015-1.04C212.483,20.667,214.186,20.638,215.89,20.638Zm.1,1.612c-1.3,0-2.611.032-3.915-.011-.8-.027-.692.486-.689.971s-.129.99.68.979q3.816-.049,7.634,0c.8.011.692-.487.688-.971s.13-1.006-.68-.978C218.474,22.281,217.233,22.25,215.993,22.25Z" transform="translate(-77.459 -15.901)" fill="#141515"/>
      <path id="Path_34" data-name="Path 34" d="M184.028,21.16c0,.393-.014.787,0,1.18.025.575-.214.837-.808.837s-.824-.263-.81-.837c.019-.786.017-1.573,0-2.359-.012-.606.32-.9.849-.748a1.34,1.34,0,0,1,.736.759A3.551,3.551,0,0,1,184.028,21.16Z" transform="translate(-72.512 -15.642)" fill="#141515"/>
      <path id="Path_35" data-name="Path 35" d="M72.74,21.182c0-.393.013-.787,0-1.18-.025-.594.283-.92.827-.77a1.17,1.17,0,0,1,.749.732,9.914,9.914,0,0,1,0,2.448,1.171,1.171,0,0,1-.755.726c-.55.147-.846-.188-.821-.777C72.753,21.969,72.74,21.575,72.74,21.182Z" transform="translate(-52.674 -15.643)" fill="#141515"/>
      <path id="Path_36" data-name="Path 36" d="M91.62,21.158a4,4,0,0,1-.031,1.266c-.106.3-.491.7-.759.7a1.041,1.041,0,0,1-.779-.667,10.547,10.547,0,0,1,0-2.546,1.088,1.088,0,0,1,.8-.65c.229-.025.638.351.73.628A4.227,4.227,0,0,1,91.62,21.158Z" transform="translate(-55.792 -15.655)" fill="#141515"/>
      <path id="Path_37" data-name="Path 37" d="M166.746,23.808c0,.786-.014,1.573,0,2.359.014.594-.284.92-.828.77-.306-.084-.739-.466-.75-.729-.07-1.6-.07-3.211,0-4.813.011-.261.45-.64.756-.722.55-.148.836.188.822.777C166.732,22.235,166.746,23.022,166.746,23.808Z" transform="translate(-69.384 -15.904)" fill="#141515"/>
    </g>
  </g>
</svg>
