<?xml version="1.0" encoding="utf-8"?>
<!-- Generator: Adobe Illustrator 22.1.0, SVG Export Plug-In . SVG Version: 6.00 Build 0)  -->
<svg version="1.1" id="Layer_1" xmlns="http://www.w3.org/2000/svg" xmlns:xlink="http://www.w3.org/1999/xlink" x="0px" y="0px"
	 viewBox="0 0 99.084 32" enable-background="new 0 0 99.084 32" xml:space="preserve">
<path id="MAGIC_IS_HAPPENING." fill="#141515" d="M68.917,0H52.825v0.091l7.406,13.075l-1.234,2.1l-6.309-11.06
	c-0.857-1.227-1.42-2.635-1.646-4.114V0H32.574v0.091c1.075,1.326,2.024,2.749,2.834,4.251L42.083,16l-6.674,11.657
	c-0.81,1.502-1.759,2.925-2.834,4.251V32h16.091v-0.091L41.26,18.835l1.234-2.1l6.305,11.059c0.843,1.234,1.405,2.639,1.646,4.114
	V32h18.472v-0.091c-1.075-1.326-2.024-2.749-2.834-4.251L59.408,16l6.675-11.657c0.81-1.502,1.759-2.925,2.834-4.251V0z"/>
<path fill="#141515" d="M63.105,22.221h-0.843H62.23h-0.844L60.948,21.5l-1.414-2.327L58.12,21.5l-0.438,0.721h-0.844h-0.031h-0.843
	L55.525,21.5l-1.786-2.938c-1.056,2.242-3.168,3.533-5.913,3.533c-1.272,0-2.381-0.251-3.312-0.749v0.561h-1.5h-3.735h-1.5h-3.327
	h-1.5h-5.078h-0.92c-0.445,0.084-0.932,0.125-1.462,0.125c-0.925,0-1.624-0.109-2.202-0.343c-0.172-0.069-0.332-0.15-0.48-0.241
	c-0.778,0.411-1.718,0.646-2.693,0.646c-1.014,0-1.9-0.259-2.561-0.75c-0.563-0.418-0.953-0.991-1.143-1.663v0.694v0.031v1.5h-1.5
	h-4.675h-1.5H3.282h-1.5v-1.5v-0.031v-0.685l0.341-0.296c0.002-0.031,0.004-0.07,0.004-0.117v-5.396H1.5v-1.5v-0.188v-1.5h0.67
	c0.125-1.188,0.518-2.16,1.175-2.897c0.593-0.666,1.709-1.46,3.651-1.46c1.131,0,2.128,0.285,2.964,0.848
	c1.007,0.666,1.561,1.71,1.561,2.941c0,0.232-0.021,0.459-0.063,0.678l2.799-0.108l1.583-0.061l0,0.008
	c0.342-0.101,0.707-0.152,1.092-0.152c0.533,0,1.068,0.092,1.634,0.281l0.827,0.276c1.133-0.464,2.382-0.541,3.432-0.541
	c1.442,0,2.601,0.166,3.516,0.507v-0.074l1.442-0.055l4.89-0.188l1.648-0.063l-0.001,0.012c0.38-0.092,0.77-0.138,1.169-0.138
	c0.919,0,1.701,0.244,2.298,0.699c0.817-0.465,1.715-0.699,2.686-0.699c1.144,0,2.058,0.341,2.716,1.013
	c0.145,0.149,0.275,0.31,0.388,0.484c1.165-0.983,2.625-1.481,4.341-1.481c0.799,0,1.485,0.085,2.074,0.225v-0.053h1.5h5.157h1.5
	h3.923h1.5h4.001h1.5v0.073c0.653-0.173,1.366-0.261,2.136-0.261c1.331,0,2.487,0.259,3.453,0.772v-0.339l1.442-0.055l4.89-0.188
	l1.583-0.061l0,0.008c0.342-0.101,0.707-0.152,1.092-0.152c0.075,0,0.149,0.002,0.224,0.005V9.577c0-0.03-0.001-0.057-0.002-0.079
	l-0.374-0.304V8.48V8.448V7.004l1.443-0.055l4.921-0.188l1.571-0.06l-0.014,1.572l-0.021,2.421h3.631h1.5v1.5v0.031v0.797
	l-0.661,0.446l-0.779,0.526c0.61,0.501,1.143,1.309,1.409,2.599l0.001,0.005l0.001,0.005l0.362,1.822l0.701,0.033v1.43v0.031v0.671
	l-0.5,0.447c-0.706,0.632-2.311,1.056-3.994,1.056c-0.65,0-1.201-0.06-1.683-0.188h-1.279h-5.078h-1.5v-1.5v-0.031v-0.685
	l0.341-0.296c0.002-0.031,0.004-0.07,0.004-0.117v-1.501c-0.345-0.089-0.72-0.134-1.117-0.134h-0.016l-0.016,0
	c-0.031-0.001-0.062-0.001-0.092-0.001c-0.024,0-0.047,0-0.069,0.001v1.534l0.564,0.306v0.893v0.031v1.5h-1.5h-5.454h-1.5v-0.595
	c-0.975,0.52-2.141,0.783-3.484,0.783c-1.866,0-3.4-0.515-4.561-1.531l-0.006-0.005l-0.006-0.005
	c-0.601-0.536-1.058-1.177-1.364-1.902L63.543,21.5L63.105,22.221z M15.848,19.177l0.508,0.275c-0.05-0.241-0.076-0.493-0.076-0.753
	c0-0.391,0.053-0.736,0.141-1.04c-0.124-0.01-0.252-0.014-0.381-0.014h-0.016l-0.016,0c-0.031-0.001-0.062-0.001-0.092-0.001
	c-0.024,0-0.047,0-0.069,0.001V19.177z"/>
<path fill="#FFFFFF" d="M6.997,7.837c-2.257,0-3.37,1.317-3.37,3.715v0.643H3v0.188h0.627v6.896c0,0.517-0.11,0.893-0.345,1.097
	v0.031h5.454v-0.031c-0.376-0.204-0.564-0.58-0.564-1.097v-6.896h1.113v-0.188H8.188c-0.956,0-1.771-0.235-2.445-0.721
	c-0.674-0.486-1.019-1.113-1.019-1.881c0-0.956,0.94-1.536,2.006-1.536c0.298,0,0.58,0.031,0.846,0.11
	c-1.003,0.423-1.505,1.097-1.505,2.022c0,1.128,0.831,1.818,1.944,1.818c1.129,0,2.006-0.705,2.006-1.881
	c0-0.737-0.298-1.301-0.893-1.693C8.548,8.041,7.827,7.837,6.997,7.837 M89.941,8.26l-4.921,0.188V8.48
	c0.251,0.204,0.376,0.58,0.376,1.097v9.702c0,0.517-0.11,0.893-0.345,1.097v0.031h5.078v-0.031c-0.125-0.204-0.188-0.58-0.188-1.097
	V15.83l0.376,2.476c0.078,0.564,0.141,0.784,0.282,1.207c0.078,0.204,0.172,0.36,0.282,0.47c0.423,0.36,0.987,0.611,2.21,0.611
	c1.536,0,2.696-0.408,2.994-0.674V19.89c-0.329-0.016-0.47-0.141-0.533-0.47l-0.502-2.523c-0.313-1.52-1.05-2.179-2.257-2.179
	c-0.47,0-0.972,0.11-1.505,0.313c-0.533,0.204-0.987,0.439-1.348,0.674v-0.031l5.11-3.448v-0.031h-4.953v0.031l2.132,1.63
	l-2.351,1.583L89.941,8.26 M16.934,11.99c-1.567,0-2.445,1.332-2.649,4.012v0.094h-0.031l0.063-3.903l-4.89,0.188v0.031
	c0.251,0.204,0.376,0.58,0.376,1.097v5.768c0,0.517-0.11,0.893-0.345,1.097v0.031h5.454v-0.031c-0.376-0.204-0.564-0.58-0.564-1.097
	V16.52c0.355-0.252,0.878-0.377,1.569-0.377c0.041,0,0.082,0,0.124,0.001c0.752,0,1.442,0.125,2.053,0.36v-4.31
	C17.67,12.053,17.294,11.99,16.934,11.99 M83.671,11.99c-1.567,0-2.445,1.332-2.649,4.012v0.094h-0.031l0.063-3.903l-4.89,0.188
	v0.031c0.251,0.204,0.376,0.58,0.376,1.097v5.768c0,0.517-0.11,0.893-0.345,1.097v0.031h5.454v-0.031
	c-0.376-0.204-0.564-0.58-0.564-1.097V16.52c0.355-0.252,0.878-0.377,1.569-0.377c0.041,0,0.082,0,0.124,0.001
	c0.752,0,1.442,0.125,2.053,0.36v-4.31C84.408,12.053,84.032,11.99,83.671,11.99 M22.827,12.006c-1.646,0-2.915,0.235-3.793,0.987
	c-0.423,0.361-0.643,0.831-0.643,1.395c0,1.113,0.831,1.834,2.038,1.834c1.317,0,2.226-0.737,2.226-1.928
	c0-0.737-0.423-1.395-1.27-1.944c0.235-0.094,0.502-0.141,0.768-0.141c0.439,0,0.799,0.251,0.799,0.705v2.288
	c-0.172,0.298-0.408,0.517-0.611,0.69c-0.188,0.141-0.564,0.298-0.752,0.376c-0.188,0.063-0.643,0.157-0.784,0.204l-0.705,0.11
	c-1.489,0.251-2.32,0.862-2.32,2.116c0,1.317,1.003,1.896,2.335,1.896c1.254,0,2.429-0.517,2.931-1.27
	c0.125,0.987,1.207,1.207,2.445,1.207c1.081,0,1.896-0.204,2.476-0.611V19.89c-0.502,0-0.564-0.345-0.564-0.956v-4.498
	C27.404,12.821,25.883,12.006,22.827,12.006 M22.952,19.263c-0.392,0-0.627-0.627-0.627-1.489c0-0.878,0.235-1.834,0.627-2.257
	V19.263 M35.491,12.006c-1.019,0-1.959,0.439-2.821,1.301l0.063-1.113l-4.89,0.188v0.031c0.251,0.204,0.376,0.58,0.376,1.097v5.768
	c0,0.517-0.11,0.893-0.345,1.097v0.031h5.078v-0.031c-0.125-0.204-0.188-0.58-0.188-1.097v-5.815
	c0.047-0.016,0.078-0.016,0.125-0.016c0.266,0,0.408,0.157,0.408,0.455v5.376c0,0.517-0.063,0.893-0.188,1.097v0.031h4.671v-0.031
	c-0.125-0.204-0.188-0.58-0.188-1.097v-5.031c0-0.282-0.031-0.533-0.078-0.752c0.063-0.031,0.125-0.047,0.204-0.047
	c0.266,0,0.408,0.157,0.408,0.455v5.376c0,0.517-0.063,0.893-0.188,1.097v0.031h5.078v-0.031c-0.235-0.204-0.345-0.58-0.345-1.097
	v-5.031c0-1.489-0.737-2.241-2.194-2.241c-1.144,0-2.132,0.439-2.994,1.332C37.231,12.445,36.573,12.006,35.491,12.006
	 M71.211,12.006c-1.52,0-2.712,0.392-3.589,1.176C66.76,13.95,66.321,15,66.321,16.301c0,1.301,0.439,2.351,1.317,3.135
	c0.878,0.768,2.069,1.16,3.574,1.16c1.52,0,2.712-0.392,3.574-1.16c0.878-0.784,1.317-1.834,1.317-3.135
	c0-1.301-0.439-2.351-1.317-3.119C73.922,12.398,72.731,12.006,71.211,12.006 M72.451,20.209c-0.218,0-0.533-0.847-1.522-3.814
	c-1.003-3.119-1.223-3.95-0.987-3.997c0.01-0.003,0.019-0.005,0.029-0.005c0.218,0,0.533,0.847,1.522,3.814
	c1.003,3.119,1.223,3.95,0.987,3.997C72.471,20.207,72.461,20.209,72.451,20.209 M47.92,12.022c-1.395,0-2.539,0.392-3.448,1.191
	c-0.909,0.784-1.364,1.818-1.364,3.119c0,1.238,0.408,2.257,1.238,3.056c0.831,0.799,1.991,1.207,3.48,1.207
	c2.821,0,4.498-1.599,5-4.028h-0.031c-0.815,0.392-1.63,0.58-2.461,0.58c-1.034,0-1.849-0.329-2.429-0.972h4.279
	C52.701,13.558,51.102,12.022,47.92,12.022 M47.748,16.003c-0.282-0.376-0.502-0.831-0.658-1.364
	c-0.235-0.705-0.533-2.241-0.188-2.241c0.251,0,0.47,0.423,0.643,1.254C47.716,14.483,47.795,15.266,47.748,16.003 M51.494,12.194
	v0.031c0.204,0.188,0.486,0.549,0.815,1.097l4.498,7.398h0.031l2.696-4.436l2.696,4.436h0.031l4.498-7.398
	c0.313-0.517,0.58-0.893,0.815-1.097v-0.031h-5.094v0.031l2.367,3.903l-0.313,0.502l-2.006-3.338
	c-0.298-0.517-0.455-0.862-0.455-1.066v-0.031h-5.015v0.031l2.367,3.887l-0.313,0.517l-2.006-3.338
	c-0.298-0.486-0.455-0.846-0.455-1.066v-0.031H51.494 M6.997,4.837c1.412,0,2.724,0.38,3.795,1.099
	c1.19,0.788,1.937,1.942,2.16,3.308l1.249-0.048c0.038-0.001,0.077-0.002,0.115-0.002c0.273,0,0.542,0.037,0.8,0.109
	c0.564-0.206,1.174-0.313,1.817-0.313c0.697,0,1.386,0.117,2.108,0.358c0.103,0.034,0.203,0.074,0.3,0.118
	c1.199-0.39,2.43-0.46,3.484-0.46c1.578,0,2.881,0.187,3.953,0.57c0.296-0.112,0.614-0.179,0.947-0.192l4.89-0.188
	c0.038-0.001,0.077-0.002,0.115-0.002c0.278,0,0.553,0.039,0.817,0.113c0.726-0.23,1.393-0.301,1.942-0.301
	c0.884,0,1.688,0.173,2.382,0.5c0.817-0.33,1.691-0.5,2.602-0.5c1.539,0,2.604,0.498,3.305,1.036
	c1.202-0.678,2.589-1.021,4.14-1.021c1.018,0,1.892,0.121,2.64,0.321c0.294-0.096,0.608-0.148,0.934-0.148h5.157
	c0.068,0,0.136,0.002,0.204,0.007c0.067-0.005,0.135-0.007,0.204-0.007h5.015c0.068,0,0.136,0.002,0.204,0.007
	c0.067-0.005,0.135-0.007,0.204-0.007h5.094c0.34,0,0.666,0.056,0.971,0.16c0.816-0.232,1.706-0.349,2.666-0.349
	c1.351,0,2.561,0.23,3.62,0.688c0.369-0.183,0.78-0.292,1.217-0.309l4.89-0.188c0.038-0.001,0.077-0.002,0.115-0.002
	c0.273,0,0.542,0.037,0.8,0.109c0.085-0.031,0.17-0.06,0.257-0.086c-0.061-0.239-0.092-0.486-0.092-0.737V8.448
	c0-1.612,1.274-2.936,2.885-2.998l4.921-0.188c0.038-0.001,0.077-0.002,0.115-0.002c0.779,0,1.529,0.303,2.09,0.848
	c0.588,0.571,0.917,1.359,0.91,2.179l-0.008,0.908h2.118c1.657,0,3,1.343,3,3v0.031c0,0.763-0.29,1.488-0.797,2.037
	c0.332,0.586,0.578,1.264,0.735,2.028c0.001,0.007,0.003,0.014,0.004,0.021l0.31,1.558c0.487,0.534,0.782,1.244,0.782,2.02v0.031
	c0,0.854-0.364,1.667-1,2.236c-1.185,1.06-3.357,1.438-4.994,1.438c-0.843,0-1.572-0.09-2.22-0.281
	c-0.237,0.06-0.486,0.093-0.742,0.093h-5.078c-0.631,0-1.217-0.195-1.701-0.528c-0.483,0.333-1.069,0.528-1.701,0.528h-5.454
	c-0.562,0-1.088-0.155-1.538-0.424c-1.019,0.407-2.17,0.612-3.446,0.612c-2.24,0-4.107-0.64-5.549-1.902
	c-0.008-0.007-0.015-0.013-0.023-0.02c-0.097-0.087-0.192-0.176-0.284-0.267l-0.531,0.873c-0.544,0.895-1.516,1.441-2.563,1.441
	H62.23c-1.048,0-2.02-0.547-2.564-1.442l-0.132-0.218l-0.132,0.218c-0.544,0.895-1.516,1.442-2.564,1.442h-0.031
	c-1.047,0-2.019-0.546-2.563-1.441l-0.594-0.977c-0.165,0.17-0.339,0.331-0.52,0.484c-1.404,1.183-3.238,1.809-5.303,1.809
	c-1.223,0-2.328-0.198-3.308-0.592c-0.442,0.257-0.956,0.403-1.504,0.403h-5.078c-0.026,0-0.052,0-0.078-0.001
	c-0.026,0.001-0.052,0.001-0.078,0.001h-4.671c-0.026,0-0.052,0-0.078-0.001c-0.026,0.001-0.052,0.001-0.078,0.001h-5.078
	c-0.181,0-0.359-0.016-0.531-0.047c-0.568,0.115-1.183,0.172-1.851,0.172c-1.092,0-1.952-0.136-2.7-0.426
	c-0.819,0.317-1.731,0.489-2.676,0.489c-1.266,0-2.379-0.327-3.255-0.907c-0.524,0.448-1.205,0.719-1.948,0.719H9.457
	c-0.122,0-0.242-0.007-0.36-0.021c-0.118,0.014-0.239,0.021-0.36,0.021H3.282c-1.657,0-3-1.343-3-3v-0.031
	c0-0.492,0.121-0.971,0.345-1.396v-4.761C0.234,13.711,0,13.074,0,12.382v-0.188c0-0.74,0.268-1.418,0.712-1.941
	c0.19-1.38,0.697-2.538,1.513-3.454C3.023,5.904,4.498,4.837,6.997,4.837z"/>
</svg>
