<svg xmlns="http://www.w3.org/2000/svg" width="375" height="322.954" viewBox="0 0 375 322.954">
  <g id="Group_4503" data-name="Group 4503" transform="translate(-850.5 -3336.546)">
    <g id="Group_4466" data-name="Group 4466" transform="translate(708 1748)">
      <path id="Path_5264" data-name="Path 5264" d="M7288,1882h17.037l85-33H7374Z" transform="translate(-7091 -149)" fill="#141515" stroke="#141515" stroke-linecap="round" stroke-linejoin="round" stroke-width="1"/>
      <path id="Path_5265" data-name="Path 5265" d="M7230.984,1941.823v15h17v-15Z" transform="translate(-7033.984 -208.823)" fill="#e4e6eb" stroke="#141515" stroke-linejoin="round" stroke-width="1"/>
      <path id="Path_5266" data-name="Path 5266" d="M7501,1882v15.03l85-36.03v-12Z" transform="translate(-7287 -149)" fill="#e4e6eb" stroke="#141515" stroke-linejoin="round" stroke-width="1"/>
    </g>
    <g id="Group_4467" data-name="Group 4467" transform="translate(887 1748)">
      <path id="Path_5264-2" data-name="Path 5264" d="M7288,1882h17.037l85-33H7374Z" transform="translate(-7091 -149)" fill="#141515" stroke="#141515" stroke-linecap="round" stroke-linejoin="round" stroke-width="1"/>
      <path id="Path_5265-2" data-name="Path 5265" d="M7230.984,1941.823v15h17v-15Z" transform="translate(-7033.984 -208.823)" fill="#e4e6eb" stroke="#141515" stroke-linejoin="round" stroke-width="1"/>
      <path id="Path_5266-2" data-name="Path 5266" d="M7501,1882v15.03l85-36.03v-12Z" transform="translate(-7287 -149)" fill="#e4e6eb" stroke="#141515" stroke-linejoin="round" stroke-width="1"/>
    </g>
    <g id="Group_4434" data-name="Group 4434" transform="translate(675 1738)">
      <path id="Path_5264-3" data-name="Path 5264" d="M7288,1882h268l85-33H7374Z" transform="translate(-7091 -149)" fill="#e4e6eb" stroke="#141515" stroke-linecap="round" stroke-linejoin="round" stroke-width="1"/>
      <path id="Path_5265-3" data-name="Path 5265" d="M7230.985,1941.823v10h268v-10Z" transform="translate(-7033.984 -208.823)" fill="#e4e6eb" stroke="#141515" stroke-linejoin="round" stroke-width="1"/>
      <path id="Path_5266-3" data-name="Path 5266" d="M7501,1882v10l85-36.03V1849Z" transform="translate(-7036 -149)" fill="#e4e6eb" stroke="#141515" stroke-linejoin="round" stroke-width="1"/>
      <path id="Path_5270" data-name="Path 5270" d="M7288,1882h35.559l16.771-7.976h-34.305Z" transform="translate(-6904.603 -156)" fill="rgba(20,21,21,0.24)" stroke="#141515" stroke-linecap="round" stroke-linejoin="round" stroke-width="1"/>
      <path id="Path_5271" data-name="Path 5271" d="M7288,1882h99.559l16.771-7.976h-98.305Z" transform="translate(-7019.603 -156)" fill="rgba(20,21,21,0.24)" stroke="#141515" stroke-linecap="round" stroke-linejoin="round" stroke-width="1"/>
    </g>
    <g id="Group_4470" data-name="Group 4470" transform="translate(31 2)">
      <g id="Group_4469" data-name="Group 4469" transform="translate(746 1636)">
        <path id="Path_5264-4" data-name="Path 5264" d="M7288,1882h163.038l4.24-1.707-156.438-.247Z" transform="translate(-7091 -149)" fill="#141515" stroke="#141515" stroke-linecap="round" stroke-linejoin="round" stroke-width="1"/>
        <path id="Path_5265-4" data-name="Path 5265" d="M7230.985,1941.823v77h14v-77Z" transform="translate(-6959.985 -208.823)" fill="#e4e6eb" stroke="#141515" stroke-linejoin="round" stroke-width="1"/>
        <path id="Path_5266-4" data-name="Path 5266" d="M7501,1882l.971,77,3.368-3.811.029-74.807Z" transform="translate(-7216.971 -149)" fill="#e4e6eb" stroke="#141515" stroke-linejoin="round" stroke-width="1"/>
      </g>
      <g id="Group_4468" data-name="Group 4468" transform="translate(746 1621)">
        <path id="Path_5264-5" data-name="Path 5264" d="M7288,1882h163.038l4.24-1.707-156.438-.247Z" transform="translate(-7091 -166)" fill="#141515" stroke="#141515" stroke-linecap="round" stroke-linejoin="round" stroke-width="1"/>
        <path id="Path_5265-5" data-name="Path 5265" d="M7230.985,1941.823v94.81h162.883v-94.81Z" transform="translate(-7033.984 -225.726)" fill="#e4e6eb" stroke="#141515" stroke-linejoin="round" stroke-width="1"/>
        <path id="Path_5269" data-name="Path 5269" d="M7230.985,1941.823v87.714H7386.37v-87.714Z" transform="translate(-7030.235 -222.179)" fill="#141515" stroke="#141515" stroke-linejoin="round" stroke-width="1"/>
        <path id="Path_5266-5" data-name="Path 5266" d="M7500.925,1864.926l.045,94.912,4.368-4.648-.045-91.881Z" transform="translate(-7141 -149)" fill="#e4e6eb" stroke="#141515" stroke-linejoin="round" stroke-width="1"/>
        <path id="MAGIC_IS_HAPPENING." data-name="MAGIC IS HAPPENING." d="M18.72-56A14.475,14.475,0,0,0,8.16-51.84,14.475,14.475,0,0,0,4-41.28h9.6a5.12,5.12,0,0,1,1.36-3.76,5.233,5.233,0,0,1,3.76-1.36,5.415,5.415,0,0,1,3.84,1.36,5.12,5.12,0,0,1,1.36,3.76,5.415,5.415,0,0,1-1.36,3.84,5.415,5.415,0,0,1-3.84,1.36h-4.8V-23.2h9.6v-4a14.34,14.34,0,0,0,5.84-3.44,15.135,15.135,0,0,0,4.16-10.64,14.8,14.8,0,0,0-4.16-10.56A14.8,14.8,0,0,0,18.72-56Zm0,39.4a4.814,4.814,0,0,0-4.8,4.8A4.814,4.814,0,0,0,18.72-7a4.814,4.814,0,0,0,4.8-4.8A4.814,4.814,0,0,0,18.72-16.6Z" transform="translate(258 1795)" fill="#e4e6eb"/>
      </g>
      <path id="Path_5268" data-name="Path 5268" d="M7288,1882h35.559l3.786-2.069-34.12-.247Z" transform="translate(-6285.603 1564)" fill="#141515" stroke="#141515" stroke-linecap="round" stroke-linejoin="round" stroke-width="1"/>
    </g>
    <g id="Group_4488" data-name="Group 4488" transform="translate(10 -23)">
      <g id="Group_4482" data-name="Group 4482">
        <g id="Group_4489" data-name="Group 4489" transform="translate(655 1806)">
          <path id="Path_5264-6" data-name="Path 5264" d="M7288,1882h14.074l3.286-1.646h-10.871Z" transform="translate(-7017 -149)" fill="#141515" stroke="#141515" stroke-linecap="round" stroke-linejoin="round" stroke-width="1"/>
          <path id="Path_5265-6" data-name="Path 5265" d="M7230.985,1941.823v77h14v-77Z" transform="translate(-6959.985 -208.823)" fill="#e4e6eb" stroke="#141515" stroke-linejoin="round" stroke-width="1"/>
          <path id="Path_5266-6" data-name="Path 5266" d="M7501.971,1882.072V1959l3.368-3.811.029-74.807Z" transform="translate(-7216.971 -149)" fill="#e4e6eb" stroke="#141515" stroke-linejoin="round" stroke-width="1"/>
        </g>
        <g id="Group_4481" data-name="Group 4481">
          <path id="Path_5273" data-name="Path 5273" d="M7877.1,3832.533s19.183-11.507,38.074-17.184a142.981,142.981,0,0,1,37.493-5.522v-6.9s-19.927-.485-39.7,5.46-39.369,17.922-39.369,17.922Z" transform="translate(-7029 -159.414)" fill="#e4e6eb" stroke="#141515" stroke-linejoin="round" stroke-width="1"/>
          <path id="Path_5280" data-name="Path 5280" d="M844.589,3666.978l3.2-3.645s17.991-11.225,36.643-16.426,38.226-5.19,38.226-5.19" fill="none" stroke="#141515" stroke-linejoin="round" stroke-width="1"/>
        </g>
        <g id="Group_4483" data-name="Group 4483" transform="translate(942.589 3641.717)">
          <path id="Path_5273-2" data-name="Path 5273" d="M7949.171,3832.533s-19.183-11.507-38.074-17.184a142.981,142.981,0,0,0-37.493-5.522v-6.9s19.927-.485,39.7,5.46,39.369,17.922,39.369,17.922Z" transform="translate(-7873.604 -3801.131)" fill="#e4e6eb" stroke="#141515" stroke-linejoin="round" stroke-width="1"/>
          <path id="Path_5280-2" data-name="Path 5280" d="M922.654,3666.978l-3.2-3.645s-17.991-11.225-36.643-16.426-38.226-5.19-38.226-5.19" transform="translate(-843.571 -3641.717)" fill="none" stroke="#141515" stroke-linejoin="round" stroke-width="1"/>
        </g>
        <g id="Group_4476" data-name="Group 4476" transform="translate(652 1840)">
          <path id="Path_5264-7" data-name="Path 5264" d="M7288,1882h16.668l2.606-.514h-17.592Z" transform="translate(-7017 -149)" fill="#e4e6eb" stroke="#141515" stroke-linecap="round" stroke-linejoin="round" stroke-width="1"/>
          <path id="Path_5265-7" data-name="Path 5265" d="M7230.985,1941.823v77h16.581v-77Z" transform="translate(-6959.985 -208.823)" fill="#e4e6eb" stroke="#141515" stroke-linejoin="round" stroke-width="1"/>
          <path id="Path_5266-7" data-name="Path 5266" d="M7501.971,1882.072V1959l3.988-3.811.035-74.807Z" transform="translate(-7214.39 -149)" fill="#e4e6eb" stroke="#141515" stroke-linejoin="round" stroke-width="1"/>
        </g>
        <g id="Group_4480" data-name="Group 4480" transform="translate(1 875)">
          <path id="Path_5277" data-name="Path 5277" d="M7874.3,3832.533s3.8-11.507,7.535-17.184,7.419-5.522,7.419-5.522v-6.9s-3.943-.485-7.855,5.46-7.791,17.922-7.791,17.922Z" transform="translate(-6957.646 -1032)" fill="#e4e6eb" stroke="#141515" stroke-linejoin="round" stroke-width="1"/>
          <path id="Path_5276" data-name="Path 5276" d="M7874.3,3832.533s3.8-11.507,7.535-17.184,5.51-6.316,5.51-6.316v-6.9s-2.034.31-5.946,6.255-7.791,17.922-7.791,17.922Z" transform="translate(-6952.646 -1032)" fill="#e4e6eb" stroke="#141515" stroke-linejoin="round" stroke-width="1"/>
          <path id="Path_5278" data-name="Path 5278" d="M7951.974,2943.226h4.952l.7,6.4h-5Z" transform="translate(-7036 -149)" fill="#e4e6eb" stroke="#141515" stroke-linejoin="round" stroke-width="1"/>
          <path id="Path_5279" data-name="Path 5279" d="M7956.9,2943.187s1.828-5.187,3.4-8.971c.78-1.876,2.96-7.283,6.027-10.893s4.371-4.206,4.371-4.206h-4.371s-2.164.8-5.049,4.206-4.713,7.9-5.626,10.073c-1.72,4.092-3.639,9.791-3.639,9.791Z" transform="translate(-7036 -149)" fill="#e4e6eb" stroke="#141515" stroke-linejoin="round" stroke-width="1"/>
        </g>
        <path id="Path_5275" data-name="Path 5275" d="M7904.1,3821.357a60,60,0,0,1,10.4-4.139,64.963,64.963,0,0,1,9.782-1.782l-1.855-6.923a29.723,29.723,0,0,0-10.06.747,47.071,47.071,0,0,0-10.3,4.514Z" transform="matrix(-0.966, -0.259, 0.259, -0.966, 7589.542, 9379.432)" fill="#e4e6eb" stroke="#141515" stroke-linejoin="round" stroke-width="1"/>
        <g id="Group_4484" data-name="Group 4484" transform="translate(0 873)">
          <circle id="Ellipse_8" data-name="Ellipse 8" cx="8.5" cy="8.5" r="8.5" transform="translate(1010 2789)" fill="#e4e6eb" stroke="#141515" stroke-linejoin="round" stroke-width="1"/>
          <circle id="Ellipse_9" data-name="Ellipse 9" cx="8.5" cy="8.5" r="8.5" transform="translate(1012 2789)" fill="#e4e6eb" stroke="#141515" stroke-linejoin="round" stroke-width="1"/>
        </g>
        <g id="Group_4485" data-name="Group 4485" transform="translate(-169 873)">
          <circle id="Ellipse_8-2" data-name="Ellipse 8" cx="8.5" cy="8.5" r="8.5" transform="translate(1010 2789)" fill="#e4e6eb" stroke="#141515" stroke-linejoin="round" stroke-width="1"/>
          <circle id="Ellipse_9-2" data-name="Ellipse 9" cx="8.5" cy="8.5" r="8.5" transform="translate(1012 2789)" fill="#e4e6eb" stroke="#141515" stroke-linejoin="round" stroke-width="1"/>
        </g>
        <g id="Group_4486" data-name="Group 4486" transform="translate(-101 876)">
          <ellipse id="Ellipse_9-3" data-name="Ellipse 9" cx="3.5" cy="8.5" rx="3.5" ry="8.5" transform="translate(1012 2789)" fill="#e4e6eb" stroke="#141515" stroke-linejoin="round" stroke-width="1"/>
          <path id="Path_5282" data-name="Path 5282" d="M1015.5,2789.758h5.138v15.006h-4.959Z" transform="translate(0 0.241)" fill="#e4e6eb" stroke="#e4e6eb" stroke-linejoin="round" stroke-width="1"/>
          <ellipse id="Ellipse_10" data-name="Ellipse 10" cx="3.5" cy="8.5" rx="3.5" ry="8.5" transform="translate(1017 2789)" fill="#e4e6eb" stroke="#141515" stroke-linejoin="round" stroke-width="1"/>
          <path id="Path_5281" data-name="Path 5281" d="M1020.3,2789h-5" fill="none" stroke="#141515" stroke-width="1"/>
          <path id="Path_5283" data-name="Path 5283" d="M1020.3,2789h-5" transform="translate(0 17)" fill="none" stroke="#141515" stroke-width="1"/>
        </g>
        <g id="Group_4487" data-name="Group 4487" transform="translate(-96 876)">
          <ellipse id="Ellipse_9-4" data-name="Ellipse 9" cx="3.5" cy="8.5" rx="3.5" ry="8.5" transform="translate(1012 2789)" fill="#e4e6eb" stroke="#141515" stroke-linejoin="round" stroke-width="1"/>
          <path id="Path_5282-2" data-name="Path 5282" d="M1015.5,2789.758h5.138v15.006h-4.959Z" transform="translate(0 0.241)" fill="#e4e6eb" stroke="#e4e6eb" stroke-linejoin="round" stroke-width="1"/>
          <ellipse id="Ellipse_10-2" data-name="Ellipse 10" cx="3.5" cy="8.5" rx="3.5" ry="8.5" transform="translate(1017 2789)" fill="#e4e6eb" stroke="#141515" stroke-linejoin="round" stroke-width="1"/>
          <path id="Path_5281-2" data-name="Path 5281" d="M1020.3,2789h-5" fill="none" stroke="#141515" stroke-width="1"/>
          <path id="Path_5283-2" data-name="Path 5283" d="M1020.3,2789h-5" transform="translate(0 17)" fill="none" stroke="#141515" stroke-width="1"/>
        </g>
      </g>
      <g id="Group_4474" data-name="Group 4474" transform="translate(-48 -23)">
        <g id="Group_4473" data-name="Group 4473" transform="translate(697 1843)">
          <g id="Group_4477" data-name="Group 4477" transform="matrix(0.985, -0.174, 0.174, 0.985, -218.594, 81.389)">
            <path id="Path_5264-8" data-name="Path 5264" d="M7288,1882h16.668l2.606-.514h-17.592Z" transform="translate(-7017 -149)" fill="#e4e6eb" stroke="#141515" stroke-linecap="round" stroke-linejoin="round" stroke-width="1"/>
            <path id="Path_5265-8" data-name="Path 5265" d="M7230.985,1941.823v6.94h16.581v-6.94Z" transform="translate(-6959.985 -208.823)" fill="#e4e6eb" stroke="#141515" stroke-linejoin="round" stroke-width="1"/>
            <path id="Path_5266-8" data-name="Path 5266" d="M7501.971,1880.566v8.374l3.988-.415.035-8.143Z" transform="translate(-7214.39 -149)" fill="#e4e6eb" stroke="#141515" stroke-linejoin="round" stroke-width="1"/>
            <path id="Path_5272" data-name="Path 5272" d="M271.136,1736.479l-57.086-15.317" fill="none" stroke="#141515" stroke-width="1"/>
          </g>
          <path id="Path_5264-9" data-name="Path 5264" d="M7303.888,1882h126.189l59.769-22.783-148.693,2.5Z" transform="translate(-7091 -149)" fill="#b3b5b9" stroke="#141515" stroke-linecap="round" stroke-linejoin="round" stroke-width="1"/>
          <path id="Path_5265-9" data-name="Path 5265" d="M7230.985,1941.823v10h125.884v-10Z" transform="translate(-7017.984 -208.823)" fill="#e4e6eb" stroke="#141515" stroke-linejoin="round" stroke-width="1"/>
          <path id="Path_5266-9" data-name="Path 5266" d="M7492.885,1881.989v10l60.262-23.265v-9.436Z" transform="translate(-7154 -149)" fill="#e4e6eb" stroke="#141515" stroke-linejoin="round" stroke-width="1"/>
        </g>
        <g id="Group_4471" data-name="Group 4471" transform="translate(702 1734)">
          <path id="Path_5264-10" data-name="Path 5264" d="M7288,1882l149.9.135,4.24-1.707-143.3-.381Z" transform="translate(-7091 -166)" fill="#e4e6eb" stroke="#141515" stroke-linecap="round" stroke-linejoin="round" stroke-width="1"/>
          <path id="Path_5265-10" data-name="Path 5265" d="M7230.985,1941.823l9.995,94.81h132.345l7.913-94.81Z" transform="translate(-7033.984 -225.726)" fill="#e4e6eb" stroke="#141515" stroke-linejoin="round" stroke-width="1"/>
          <path id="Path_5266-10" data-name="Path 5266" d="M7500.925,1864.926l-7.419,94.869,4.368-4.648,7.419-91.838Z" transform="translate(-7154 -149)" fill="#e4e6eb" stroke="#141515" stroke-linejoin="round" stroke-width="1"/>
        </g>
        <g id="Group_4472" data-name="Group 4472" transform="translate(691 1780)">
          <path id="Path_5264-11" data-name="Path 5264" d="M7288,1882h14.074l3.286-1.646h-10.871Z" transform="translate(-7017 -149)" fill="#141515" stroke="#141515" stroke-linecap="round" stroke-linejoin="round" stroke-width="1"/>
          <path id="Path_5265-11" data-name="Path 5265" d="M7230.985,1941.823v77h14v-77Z" transform="translate(-6959.985 -208.823)" fill="#e4e6eb" stroke="#141515" stroke-linejoin="round" stroke-width="1"/>
          <path id="Path_5266-11" data-name="Path 5266" d="M7501.971,1882.072V1959l3.368-3.811.029-74.807Z" transform="translate(-7216.971 -149)" fill="#e4e6eb" stroke="#141515" stroke-linejoin="round" stroke-width="1"/>
        </g>
      </g>
    </g>
  </g>
</svg>
